<svg width="301" height="301" viewBox="0 0 301 301" fill="none" xmlns="http://www.w3.org/2000/svg">
<rect width="301" height="301" fill="white"/>
<rect width="301" height="301" fill="white"/>
<path d="M48.738 247.014L61.0725 225.269C61.1201 225.183 61.2154 225.126 61.3201 225.126H74.7119C74.931 225.126 75.0643 225.364 74.9595 225.555L54.6052 260.377C54.6052 260.377 54.5671 260.472 54.5671 260.52V280.493C54.5671 280.646 54.4433 280.779 54.2814 280.779H42.7374C42.585 280.779 42.4517 280.655 42.4517 280.493V260.015C42.4517 259.968 42.4422 259.92 42.4136 259.872L22.2879 225.555C22.1736 225.364 22.3164 225.126 22.5355 225.126H36.0034C36.1082 225.126 36.2035 225.183 36.2511 225.269L48.5094 247.014H48.738Z" fill="#25836E"/>
<path d="M98.257 263.415L101.124 261.415L116.068 250.967C120.878 247.604 127.507 248.776 130.87 253.586C134.232 258.396 133.06 265.025 128.25 268.387C124.602 270.94 119.916 270.873 116.392 268.606L107.477 274.845C114.592 281.751 125.831 282.865 134.26 276.969C143.814 270.283 146.138 257.129 139.461 247.576C132.775 238.023 119.621 235.699 110.068 242.375L83.6747 260.844C86.9893 265.587 93.5232 266.74 98.2665 263.425L98.257 263.415Z" fill="#25836E"/>
<path d="M112.592 255.92L109.725 257.92L94.7805 268.368C89.9705 271.731 83.3413 270.559 79.9791 265.749C76.6168 260.939 77.7884 254.31 82.5984 250.948C86.2463 248.395 90.9325 248.462 94.4566 250.729L103.372 244.49C96.2568 237.584 85.0176 236.47 76.5883 242.366C67.035 249.052 64.7109 262.206 71.3878 271.759C78.0741 281.312 91.2278 283.636 100.781 276.96L127.174 258.491C123.859 253.748 117.325 252.595 112.582 255.91L112.592 255.92Z" fill="#25836E"/>
<path d="M153.291 280.779V225.136H164.816V280.779H153.291Z" fill="#ACC981"/>
<path d="M180.417 232.965C185.484 227.736 191.904 225.126 199.676 225.126C207.448 225.126 213.858 227.736 218.916 232.965C223.974 238.194 226.498 244.852 226.498 252.948C226.498 261.044 223.974 267.711 218.916 272.931C213.858 278.16 207.448 280.77 199.676 280.77C191.904 280.77 185.484 278.16 180.417 272.931C175.35 267.702 172.816 261.044 172.816 252.948C172.816 244.852 175.35 238.185 180.417 232.965ZM188.608 265.282C191.475 268.521 195.152 270.13 199.657 270.13C204.162 270.13 207.848 268.511 210.706 265.282C213.573 262.044 215.001 257.929 215.001 252.929C215.001 247.928 213.573 243.814 210.706 240.575C207.839 237.337 204.153 235.727 199.657 235.727C195.161 235.727 191.466 237.346 188.608 240.575C185.741 243.814 184.313 247.928 184.313 252.929C184.313 257.929 185.741 262.044 188.608 265.282Z" fill="#ACC981"/>
<path d="M262.149 270.14C264.644 270.14 267.273 269.73 270.026 268.911C272.778 268.092 275.036 267.092 276.798 265.93L278.741 276.417C273.969 279.331 268.311 280.779 261.777 280.779C253.205 280.779 246.214 278.255 240.794 273.207C235.375 268.159 232.66 261.549 232.66 253.386C232.66 245.223 235.356 238.413 240.737 233.098C246.119 227.784 253.138 225.126 261.777 225.126C267.33 225.126 272.569 226.345 277.493 228.784C277.445 228.784 276.941 230.565 275.988 234.117L274.559 239.489C270.645 237.003 266.387 235.746 261.787 235.718C256.377 235.718 252.091 237.432 248.919 240.851C245.747 244.271 244.166 248.443 244.166 253.376C244.166 258.31 245.852 262.549 249.214 265.578C252.576 268.616 256.891 270.13 262.158 270.13L262.149 270.14Z" fill="#ACC981"/>
<path d="M164.996 112.306C164.996 125.85 159.548 138.127 150.728 147.062C150.661 147.147 150.576 147.223 150.509 147.29C150.423 147.376 150.347 147.443 150.261 147.519L115.506 182.274C121.144 176.636 125.44 169.626 127.84 161.787C128.012 161.225 128.174 160.682 128.326 160.11C129.421 156.024 130.002 151.729 130.002 147.29C130.002 133.632 124.449 121.259 115.506 112.306L45.5468 42.3469C45.6039 42.2611 45.6611 42.223 45.7372 42.1564C54.6714 33.2984 66.9583 27.8407 80.5215 27.8407C82.5598 27.8407 84.56 27.9646 86.5411 28.2122C97.7898 29.5647 107.876 34.708 115.496 42.3373H115.506L150.261 77.093C150.347 77.1597 150.423 77.2454 150.509 77.3121C150.576 77.3978 150.661 77.474 150.728 77.5407C159.548 86.4749 164.996 98.7522 164.996 112.296V112.306Z" fill="url(#paint0_linear_1_17)"/>
<path d="M115.516 112.306C107.896 119.926 97.7998 125.079 86.532 126.431C84.5604 126.679 82.5602 126.793 80.5219 126.793C76.0929 126.793 71.7973 126.212 67.7112 125.117C59.3771 122.897 51.9097 118.535 45.9186 112.687C45.871 112.639 45.8234 112.601 45.7758 112.554C45.6901 112.468 45.6139 112.392 45.5377 112.306C45.671 112.163 45.8044 112.03 45.9472 111.896C51.9287 106.048 59.3866 101.714 67.7017 99.4952C71.7878 98.3998 76.0929 97.8188 80.5124 97.8188C82.5507 97.8188 84.5509 97.9331 86.5225 98.1808C97.7807 99.5333 107.886 104.686 115.506 112.306H115.516Z" fill="url(#paint1_linear_1_17)"/>
<path d="M130.003 147.3C130.003 151.738 129.422 156.034 128.326 160.11C128.174 160.682 128.012 161.234 127.841 161.787C125.45 169.626 121.154 176.636 115.516 182.274C107.896 189.894 97.7998 195.047 86.532 196.4C84.5604 196.647 82.5602 196.762 80.5219 196.762C66.9587 196.762 54.6623 191.304 45.7281 182.455C45.6615 182.398 45.6139 182.351 45.5472 182.274C45.8234 181.979 46.1091 181.712 46.3854 181.446L66.0348 161.787L80.5219 147.3L86.532 141.29L115.516 112.306C124.459 121.259 130.003 133.632 130.003 147.29V147.3Z" fill="url(#paint2_linear_1_17)"/>
<path d="M255.453 42.3469L234.965 62.8345L220.469 77.3312L185.494 112.306H185.484L150.729 147.062C159.548 138.127 164.997 125.85 164.997 112.306C164.997 98.7618 159.548 86.4844 150.729 77.5502C150.662 77.4835 150.576 77.3978 150.51 77.3216L164.997 62.8345L185.484 42.3469C194.447 33.3841 206.81 27.8503 220.469 27.8503C225.507 27.8503 230.374 28.6027 234.965 30.0124C242.794 32.4126 249.814 36.6892 255.453 42.3469Z" fill="url(#paint3_linear_1_17)"/>
<defs>
<linearGradient id="paint0_linear_1_17" x1="45.5468" y1="105.058" x2="164.996" y2="105.058" gradientUnits="userSpaceOnUse">
<stop offset="0.11" stop-color="#91D5EA"/>
<stop offset="0.36" stop-color="#79BDBC"/>
<stop offset="0.91" stop-color="#3E8349"/>
<stop offset="1" stop-color="#357A37"/>
</linearGradient>
<linearGradient id="paint1_linear_1_17" x1="159.396" y1="112.306" x2="-2.31451" y2="112.306" gradientUnits="userSpaceOnUse">
<stop offset="0.27" stop-color="#2D897A"/>
<stop offset="0.88" stop-color="#D9EFA4"/>
</linearGradient>
<linearGradient id="paint2_linear_1_17" x1="63.3108" y1="200.343" x2="138.508" y2="121.478" gradientUnits="userSpaceOnUse">
<stop offset="0.04" stop-color="#2A9476"/>
<stop offset="0.88" stop-color="#195658"/>
</linearGradient>
<linearGradient id="paint3_linear_1_17" x1="236.28" y1="24.3261" x2="135.003" y2="132.317" gradientUnits="userSpaceOnUse">
<stop offset="0.27" stop-color="#2D897A"/>
<stop offset="0.88" stop-color="#D9EFA4"/>
</linearGradient>
</defs>
</svg>
