<svg width="512" height="512" viewBox="0 0 512 512" fill="none" xmlns="http://www.w3.org/2000/svg">
<path d="M82.9031 420.17L103.884 383.182C103.965 383.036 104.127 382.939 104.305 382.939H127.085C127.457 382.939 127.684 383.344 127.506 383.668L92.8832 442.901C92.8832 442.901 92.8184 443.063 92.8184 443.144V477.118C92.8184 477.377 92.6078 477.604 92.3324 477.604H72.6962C72.4369 477.604 72.2101 477.394 72.2101 477.118V442.285C72.2101 442.204 72.1939 442.123 72.1453 442.042L37.9115 383.668C37.7171 383.344 37.9601 382.939 38.3328 382.939H61.2417C61.4199 382.939 61.5819 383.036 61.6629 383.182L82.5143 420.17H82.9031Z" fill="#25836E"/>
<path d="M167.135 448.069L172.011 444.667L197.432 426.894C205.613 421.174 216.89 423.167 222.609 431.349C228.328 439.531 226.335 450.807 218.153 456.526C211.948 460.868 203.977 460.755 197.982 456.899L182.818 467.511C194.92 479.257 214.038 481.152 228.376 471.124C244.627 459.75 248.58 437.376 237.222 421.126C225.849 404.876 203.475 400.923 187.225 412.28L142.33 443.694C147.968 451.763 159.083 453.723 167.151 448.085L167.135 448.069Z" fill="#25836E"/>
<path d="M191.518 435.318L186.641 438.721L161.221 456.494C153.039 462.213 141.763 460.22 136.044 452.038C130.325 443.857 132.318 432.58 140.499 426.861C146.705 422.519 154.676 422.633 160.67 426.488L175.835 415.877C163.732 404.13 144.615 402.235 130.276 412.264C114.026 423.637 110.073 446.011 121.43 462.261C132.804 478.512 155.178 482.465 171.428 471.107L216.323 439.693C210.684 431.624 199.57 429.664 191.502 435.302L191.518 435.318Z" fill="#25836E"/>
<path d="M260.747 477.604V382.955H280.351V477.604H260.747Z" fill="#ACC981"/>
<path d="M306.889 396.273C315.508 387.378 326.428 382.939 339.648 382.939C352.869 382.939 363.772 387.378 372.375 396.273C380.978 405.167 385.272 416.492 385.272 430.263C385.272 444.035 380.978 455.376 372.375 464.254C363.772 473.149 352.869 477.588 339.648 477.588C326.428 477.588 315.508 473.149 306.889 464.254C298.27 455.36 293.96 444.035 293.96 430.263C293.96 416.492 298.27 405.151 306.889 396.273ZM320.822 451.244C325.699 456.753 331.953 459.491 339.616 459.491C347.279 459.491 353.549 456.737 358.41 451.244C363.286 445.736 365.717 438.737 365.717 430.231C365.717 421.725 363.286 414.726 358.41 409.218C353.533 403.709 347.263 400.971 339.616 400.971C331.969 400.971 325.683 403.725 320.822 409.218C315.946 414.726 313.515 421.725 313.515 430.231C313.515 438.737 315.946 445.736 320.822 451.244Z" fill="#ACC981"/>
<path d="M445.914 459.507C450.159 459.507 454.631 458.81 459.313 457.417C463.995 456.024 467.835 454.323 470.832 452.346L474.137 470.184C466.02 475.142 456.396 477.604 445.282 477.604C430.701 477.604 418.809 473.311 409.59 464.724C400.372 456.137 395.754 444.893 395.754 431.009C395.754 417.124 400.339 405.54 409.493 396.499C418.647 387.459 430.587 382.939 445.282 382.939C454.728 382.939 463.639 385.013 472.015 389.16C471.934 389.16 471.075 392.19 469.455 398.233L467.025 407.371C460.366 403.142 453.124 401.003 445.298 400.955C436.096 400.955 428.805 403.871 423.41 409.687C418.015 415.504 415.326 422.6 415.326 430.992C415.326 439.385 418.193 446.595 423.912 451.747C429.632 456.915 436.971 459.491 445.93 459.491L445.914 459.507Z" fill="#ACC981"/>
<path d="M280.658 191.032C280.658 214.07 271.391 234.954 256.388 250.151C256.275 250.297 256.129 250.427 256.016 250.54C255.87 250.686 255.74 250.799 255.594 250.929L196.475 310.048C206.066 300.457 213.373 288.533 217.456 275.199C217.748 274.243 218.023 273.319 218.282 272.347C220.145 265.397 221.134 258.09 221.134 250.54C221.134 227.307 211.688 206.261 196.475 191.032L77.475 72.0319C77.5722 71.8861 77.6694 71.8213 77.799 71.7079C92.9961 56.6405 113.896 47.357 136.967 47.357C140.434 47.357 143.836 47.5676 147.206 47.9889C166.34 50.2895 183.498 59.0383 196.459 72.0157H196.475L255.594 131.135C255.74 131.248 255.87 131.394 256.016 131.508C256.129 131.653 256.275 131.783 256.388 131.896C271.391 147.093 280.658 167.977 280.658 191.016V191.032Z" fill="url(#paint0_linear_2_18)"/>
<path d="M196.492 191.032C183.531 203.993 166.357 212.758 147.191 215.059C143.837 215.48 140.435 215.674 136.968 215.674C129.434 215.674 122.127 214.686 115.177 212.823C101 209.048 88.2982 201.628 78.1075 191.68C78.0265 191.599 77.9454 191.534 77.8644 191.453C77.7186 191.307 77.589 191.178 77.4594 191.032C77.6862 190.789 77.913 190.562 78.1561 190.335C88.3306 180.388 101.016 173.016 115.16 169.241C122.111 167.378 129.434 166.389 136.951 166.389C140.418 166.389 143.821 166.584 147.174 167.005C166.325 169.306 183.514 178.071 196.476 191.032H196.492Z" fill="url(#paint1_linear_2_18)"/>
<path d="M221.134 250.556C221.134 258.106 220.146 265.413 218.283 272.347C218.024 273.319 217.748 274.259 217.457 275.199C213.39 288.533 206.083 300.457 196.492 310.048C183.531 323.009 166.357 331.774 147.191 334.075C143.837 334.496 140.435 334.691 136.968 334.691C113.897 334.691 92.9804 325.407 77.7834 310.356C77.67 310.259 77.589 310.178 77.4756 310.048C77.9454 309.546 78.4315 309.092 78.9013 308.639L112.325 275.199L136.968 250.556L147.191 240.333L196.492 191.032C211.705 206.261 221.134 227.307 221.134 250.54V250.556Z" fill="url(#paint2_linear_2_18)"/>
<path d="M434.524 72.0319L399.675 106.881L375.016 131.54L315.524 191.032H315.508L256.389 250.151C271.391 234.954 280.659 214.071 280.659 191.032C280.659 167.993 271.391 147.11 256.389 131.913C256.275 131.799 256.13 131.653 256.016 131.524L280.659 106.881L315.508 72.0319C330.754 56.7863 351.783 47.3732 375.016 47.3732C383.587 47.3732 391.866 48.6531 399.675 51.0509C412.993 55.1337 424.933 62.4082 434.524 72.0319Z" fill="url(#paint3_linear_2_18)"/>
<defs>
<linearGradient id="paint0_linear_2_18" x1="77.475" y1="178.703" x2="280.658" y2="178.703" gradientUnits="userSpaceOnUse">
<stop offset="0.11" stop-color="#91D5EA"/>
<stop offset="0.36" stop-color="#79BDBC"/>
<stop offset="0.91" stop-color="#3E8349"/>
<stop offset="1" stop-color="#357A37"/>
</linearGradient>
<linearGradient id="paint1_linear_2_18" x1="271.132" y1="191.032" x2="-3.93698" y2="191.032" gradientUnits="userSpaceOnUse">
<stop offset="0.27" stop-color="#2D897A"/>
<stop offset="0.88" stop-color="#D9EFA4"/>
</linearGradient>
<linearGradient id="paint2_linear_2_18" x1="107.691" y1="340.782" x2="235.602" y2="206.634" gradientUnits="userSpaceOnUse">
<stop offset="0.04" stop-color="#2A9476"/>
<stop offset="0.88" stop-color="#195658"/>
</linearGradient>
<linearGradient id="paint3_linear_2_18" x1="401.911" y1="41.3786" x2="229.64" y2="225.071" gradientUnits="userSpaceOnUse">
<stop offset="0.27" stop-color="#2D897A"/>
<stop offset="0.88" stop-color="#D9EFA4"/>
</linearGradient>
</defs>
</svg>
