<svg width="37" height="27" viewBox="0 0 37 27" fill="none" xmlns="http://www.w3.org/2000/svg">
<path d="M19.8441 18.5615C19.8454 18.0376 19.8976 17.5149 20 17H0V18.2776C0.00132684 18.734 0.19457 19.1714 0.537487 19.4941C0.880404 19.8169 1.34512 19.9988 1.83007 20H19.995C19.8999 19.5256 19.8495 19.0442 19.8441 18.5615Z" fill="white"/>
<path d="M23.9855 11.8868V8.99149C23.9848 8.23514 24.1335 7.48605 24.4231 6.78702C24.7127 6.08798 25.1376 5.45267 25.6734 4.91737C26.2093 4.38207 26.8456 3.95725 27.546 3.66718C28.2465 3.37711 28.9974 3.22746 29.7559 3.22678H30V1.88531C29.9986 1.38572 29.799 0.906974 29.4447 0.553705C29.0905 0.200436 28.6104 0.00136689 28.1094 0H1.89057C1.38958 0.00136689 0.909501 0.200436 0.555244 0.553705C0.200988 0.906974 0.00137071 1.38572 0 1.88531V14H22.0533C22.5845 13.2007 23.2363 12.4879 23.9855 11.8868ZM3.05402 5.02922V3.58416H13.0471V5.02922H3.05402Z" fill="white"/>
<path d="M33.6293 12.2195V8.86885C33.6498 8.23714 33.5452 7.60768 33.3218 7.01793C33.0984 6.42818 32.7606 5.89018 32.3287 5.43594C31.8969 4.98169 31.3796 4.62049 30.8077 4.37381C30.2359 4.12712 29.6211 4 29 4C28.3789 4 27.7641 4.12712 27.1923 4.37381C26.6204 4.62049 26.1031 4.98169 25.6712 5.43594C25.2393 5.89018 24.9016 6.42818 24.6782 7.01793C24.4548 7.60768 24.3502 8.23714 24.3707 8.86885V12.2195C22.9866 13.2189 21.9506 14.6403 21.4126 16.2782C20.8746 17.9162 20.8624 19.6858 21.3778 21.3312C21.8932 22.9767 22.9094 24.4127 24.2796 25.4318C25.6498 26.4508 27.3029 27 29 27C30.6971 27 32.3502 26.4508 33.7204 25.4318C35.0906 24.4127 36.1068 22.9767 36.6222 21.3312C37.1376 19.6858 37.1254 17.9162 36.5874 16.2782C36.0494 14.6403 35.0134 13.2189 33.6293 12.2195ZM35.3663 19.6535C35.2219 20.8215 34.7696 21.928 34.0573 22.8556L33.1963 21.9744L32.0736 23.1117L32.9396 23.9929C32.0282 24.7171 30.9406 25.1757 29.7929 25.3199V24.0749H28.207V25.3199C27.0597 25.1747 25.9723 24.7162 25.0604 23.9929L25.9264 23.1117L24.8037 21.9744L23.9427 22.8556C23.23 21.9287 22.7792 20.8216 22.6388 19.6535H23.8622V18.0243H22.6388C22.7782 16.8558 23.2291 15.7485 23.9427 14.8222L24.8037 15.7034L25.9264 14.5609L25.0604 13.6848C25.9719 12.9599 27.0592 12.4996 28.207 12.3527V13.5977H29.7929V12.3886C30.941 12.5345 32.0286 12.9949 32.9396 13.7207L32.0736 14.5967L33.1963 15.7392L34.0573 14.858C34.7705 15.7851 35.2229 16.8918 35.3663 18.0601H34.1429V19.674L35.3663 19.6535ZM26.2184 8.86885C26.1778 8.47409 26.2192 8.07505 26.3399 7.6976C26.4605 7.32015 26.6578 6.97272 26.9189 6.67782C27.1799 6.38291 27.499 6.14712 27.8553 5.98572C28.2117 5.82433 28.5974 5.74093 28.9874 5.74093C29.3775 5.74093 29.7632 5.82433 30.1195 5.98572C30.4758 6.14712 30.7949 6.38291 31.056 6.67782C31.317 6.97272 31.5143 7.32015 31.635 7.6976C31.7556 8.07505 31.797 8.47409 31.7565 8.86885V11.2153C29.9691 10.5453 28.0057 10.5453 26.2184 11.2153V8.86885ZM32.4865 18.844C32.4865 19.5452 32.2821 20.2307 31.8993 20.8137C31.5165 21.3967 30.9724 21.8511 30.3358 22.1195C29.6992 22.3878 28.9986 22.458 28.3228 22.3212C27.647 22.1844 27.0262 21.8468 26.539 21.3509C26.0517 20.8551 25.7199 20.2234 25.5855 19.5357C25.4511 18.8479 25.5201 18.1351 25.7838 17.4872C26.0475 16.8394 26.494 16.2857 27.0669 15.8961C27.6399 15.5066 28.3135 15.2986 29.0025 15.2986C29.46 15.2986 29.9131 15.3903 30.3358 15.5685C30.7585 15.7467 31.1425 16.0078 31.466 16.337C31.7896 16.6663 32.0462 17.0571 32.2213 17.4872C32.3964 17.9174 32.4865 18.3784 32.4865 18.844Z" fill="white"/>
</svg>
