<svg width="32" height="32" viewBox="0 0 32 32" fill="none" xmlns="http://www.w3.org/2000/svg">
<path d="M30.0606 0H26.1818C25.6675 0 25.1742 0.211316 24.8105 0.587458C24.4468 0.963599 24.2424 1.47375 24.2424 2.0057C24.2424 2.53764 24.0381 3.0478 23.6744 3.42395C23.3107 3.80009 22.8174 4.0114 22.303 4.0114C21.7887 4.0114 21.2954 3.80009 20.9317 3.42395C20.568 3.0478 20.3636 2.53764 20.3636 2.0057C20.3636 1.47375 20.1593 0.963599 19.7956 0.587458C19.4319 0.211316 18.9386 0 18.4242 0H13.5758C13.0614 0 12.5681 0.211316 12.2044 0.587458C11.8407 0.963599 11.6364 1.47375 11.6364 2.0057C11.6364 2.53764 11.432 3.0478 11.0683 3.42395C10.7046 3.80009 10.2113 4.0114 9.69697 4.0114C9.18261 4.0114 8.68932 3.80009 8.32561 3.42395C7.9619 3.0478 7.75758 2.53764 7.75758 2.0057C7.75758 1.47375 7.55325 0.963599 7.18954 0.587458C6.82583 0.211316 6.33254 0 5.81818 0H1.93939C1.42503 0 0.931741 0.211316 0.568034 0.587458C0.204327 0.963599 0 1.47375 0 2.0057V25.0712C0 25.6032 0.204327 26.1133 0.568034 26.4895C0.931741 26.8656 1.42503 27.0769 1.93939 27.0769H30.0606C30.575 27.0769 31.0683 26.8656 31.432 26.4895C31.7957 26.1133 32 25.6032 32 25.0712V2.0057C32 1.47375 31.7957 0.963599 31.432 0.587458C31.0683 0.211316 30.575 0 30.0606 0ZM8.36849 9.1159C8.92275 9.1159 9.46457 9.28587 9.92543 9.60434C10.3863 9.9228 10.7455 10.3754 10.9576 10.905C11.1697 11.4346 11.2252 12.0173 11.1171 12.5795C11.0089 13.1417 10.742 13.6582 10.3501 14.0635C9.95817 14.4688 9.45883 14.7448 8.91521 14.8567C8.37159 14.9685 7.80812 14.9111 7.29604 14.6917C6.78397 14.4724 6.34629 14.1009 6.03835 13.6243C5.73042 13.1477 5.56606 12.5873 5.56606 12.0141C5.56606 11.2455 5.86131 10.5083 6.38687 9.96477C6.91243 9.42125 7.62524 9.1159 8.36849 9.1159ZM13.1394 20.428C13.1447 20.6126 13.0794 20.7918 12.9578 20.9269C12.8362 21.0621 12.668 21.1423 12.4897 21.1501H4.30545C4.12711 21.1423 3.95893 21.0621 3.83733 20.9269C3.71573 20.7918 3.6505 20.6126 3.65576 20.428V19.7962C3.63478 19.1914 3.84654 18.6026 4.24462 18.159C4.64269 17.7153 5.19461 17.453 5.77939 17.4295H10.9673C11.261 17.4347 11.5508 17.5003 11.8197 17.6225C12.0886 17.7448 12.3312 17.9213 12.5334 18.1416C12.7357 18.3619 12.8934 18.6217 12.9974 18.9058C13.1015 19.1899 13.1497 19.4926 13.1394 19.7962V20.428ZM26.1818 19.7962H17.4545C17.1331 19.7962 16.8248 19.6642 16.5974 19.4291C16.3701 19.194 16.2424 18.8751 16.2424 18.5427C16.2424 18.2102 16.3701 17.8914 16.5974 17.6563C16.8248 17.4212 17.1331 17.2891 17.4545 17.2891H26.1818C26.5033 17.2891 26.8116 17.4212 27.0389 17.6563C27.2662 17.8914 27.3939 18.2102 27.3939 18.5427C27.3939 18.8751 27.2662 19.194 27.0389 19.4291C26.8116 19.6642 26.5033 19.7962 26.1818 19.7962ZM26.1818 14.782H17.4545C17.1331 14.782 16.8248 14.6499 16.5974 14.4148C16.3701 14.1797 16.2424 13.8609 16.2424 13.5284C16.2424 13.196 16.3701 12.8771 16.5974 12.642C16.8248 12.4069 17.1331 12.2749 17.4545 12.2749H26.1818C26.5033 12.2749 26.8116 12.4069 27.0389 12.642C27.2662 12.8771 27.3939 13.196 27.3939 13.5284C27.3939 13.8609 27.2662 14.1797 27.0389 14.4148C26.8116 14.6499 26.5033 14.782 26.1818 14.782Z" fill="white"/>
<path d="M29.2804 29H1.48883C1.09397 29 0.715279 29.1297 0.436068 29.3605C0.156858 29.5913 0 29.9043 0 30.2308C0 30.5572 0.156858 30.8702 0.436068 31.1011C0.715279 31.3319 1.09397 31.4615 1.48883 31.4615H29.2804C29.6753 31.4615 30.054 31.3319 30.3332 31.1011C30.6124 30.8702 30.7692 30.5572 30.7692 30.2308C30.7692 29.9043 30.6124 29.5913 30.3332 29.3605C30.054 29.1297 29.6753 29 29.2804 29Z" fill="white"/>
</svg>
