<svg width="25" height="26" viewBox="0 0 25 26" fill="none" xmlns="http://www.w3.org/2000/svg">
<path d="M5.35272 0.7146H2.37935C1.48663 0.7146 0.756004 1.45565 0.756004 2.36112V24.0404C0.756004 24.9461 1.48663 25.6869 2.37935 25.6869H5.35272C6.24568 25.6869 6.97606 24.9459 6.97606 24.0404V2.36112C6.97606 1.45565 6.24544 0.7146 5.35272 0.7146ZM2.21678 3.70677C2.21678 3.55932 2.33552 3.43888 2.48089 3.43888H5.18049C5.32586 3.43888 5.44461 3.55932 5.44461 3.70677V12.6104C5.44461 12.7578 5.32586 12.8783 5.18049 12.8783H2.48089C2.33552 12.8783 2.21678 12.7578 2.21678 12.6104V3.70677ZM3.84247 22.6044C2.69742 22.6044 1.76912 21.6629 1.76912 20.5015C1.76912 19.3401 2.69742 18.3985 3.84247 18.3985C4.98753 18.3985 5.91583 19.3401 5.91583 20.5015C5.91583 21.6629 4.98753 22.6044 3.84247 22.6044Z" fill="white"/>
<path d="M12.5623 0.7146H9.58892C8.69596 0.7146 7.96558 1.45565 7.96558 2.36112V24.0404C7.96558 24.9461 8.6962 25.6869 9.58892 25.6869H12.5623C13.4552 25.6869 14.1856 24.9459 14.1856 24.0404V2.36112C14.1856 1.45565 13.455 0.7146 12.5623 0.7146ZM9.42635 3.70677C9.42635 3.55932 9.54509 3.43888 9.69046 3.43888H12.3901C12.5354 3.43888 12.6542 3.55932 12.6542 3.70677V12.6104C12.6542 12.7578 12.5354 12.8783 12.3901 12.8783H9.69046C9.54509 12.8783 9.42635 12.7578 9.42635 12.6104V3.70677ZM11.052 22.6044C9.90699 22.6044 8.97869 21.6629 8.97869 20.5015C8.97869 19.3401 9.90699 18.3985 11.052 18.3985C12.1971 18.3985 13.1254 19.3401 13.1254 20.5015C13.1254 21.6629 12.1971 22.6044 11.052 22.6044Z" fill="white"/>
<path d="M18.1884 0.694494L15.2907 1.36935C14.4203 1.572 13.8718 2.46002 14.0716 3.34254L18.854 24.4722C19.0538 25.355 19.9293 25.9113 20.7994 25.7086L23.6972 25.034C24.5675 24.8314 25.116 23.9434 24.9162 23.0608L20.1338 1.93093C19.934 1.04841 19.0585 0.491845 18.1884 0.694494ZM15.792 4.32257C15.7595 4.17894 15.8488 4.03461 15.9904 4.00163L18.6217 3.3889C18.7633 3.35592 18.9056 3.4465 18.9381 3.59012L20.9022 12.2681C20.9347 12.4118 20.8454 12.5561 20.7038 12.5891L18.0725 13.2018C17.9309 13.2348 17.7886 13.1442 17.7561 13.0006L15.792 4.32257ZM21.5454 22.3721C20.4293 22.6319 19.317 21.925 19.0606 20.793C18.8045 19.661 19.5015 18.5328 20.6175 18.2728C21.7336 18.013 22.8459 18.7199 23.1023 19.8519C23.3584 20.9839 22.6612 22.1124 21.5454 22.3721Z" fill="white"/>
</svg>
