<svg width="24" height="31" viewBox="0 0 24 31" fill="none" xmlns="http://www.w3.org/2000/svg">
<path d="M17.0628 16.5645C15.6907 16.5645 14.3495 16.9713 13.2086 17.7336C12.0678 18.4959 11.1786 19.5794 10.6535 20.847C10.1285 22.1146 9.99108 23.5095 10.2588 24.8552C10.5264 26.2009 11.1872 27.437 12.1574 28.4072C13.1276 29.3774 14.3637 30.0381 15.7094 30.3058C17.0551 30.5735 18.45 30.4361 19.7176 29.911C20.9852 29.386 22.0687 28.4968 22.831 27.356C23.5933 26.2151 24.0001 24.8739 24.0001 23.5018C24.0001 21.6619 23.2692 19.8973 21.9682 18.5963C20.6672 17.2953 18.9027 16.5645 17.0628 16.5645ZM16.7236 22.2762L18.2653 23.047C18.7169 23.2778 19.083 23.6467 19.3104 24.1001C19.5378 24.5535 19.6145 25.0676 19.5294 25.5676C19.4713 25.9536 19.3164 26.3185 19.0792 26.6285C18.842 26.9385 18.5301 27.1834 18.1728 27.3404V27.5871C18.1728 27.8426 18.0712 28.0877 17.8906 28.2684C17.7099 28.4491 17.4648 28.5506 17.2092 28.5506C16.9537 28.5506 16.7086 28.4491 16.5279 28.2684C16.3472 28.0877 16.2457 27.8426 16.2457 27.5871V27.4406C15.8678 27.3173 15.5197 27.1165 15.2238 26.851C14.9278 26.5856 14.6904 26.2613 14.5268 25.899C14.4716 25.7824 14.4403 25.6559 14.4349 25.527C14.4295 25.3981 14.45 25.2694 14.4952 25.1486C14.5405 25.0277 14.6095 24.9172 14.6983 24.8236C14.7871 24.73 14.8937 24.6551 15.012 24.6035C15.1302 24.5518 15.2576 24.5245 15.3866 24.523C15.5156 24.5215 15.6436 24.546 15.763 24.595C15.8824 24.6439 15.9907 24.7163 16.0816 24.8079C16.1725 24.8995 16.244 25.0084 16.292 25.1282C16.3713 25.305 16.5038 25.4527 16.6709 25.5508C16.8381 25.6489 17.0316 25.6925 17.2247 25.6755C17.323 25.6745 17.4176 25.6381 17.4912 25.573C17.5648 25.5078 17.6125 25.4183 17.6255 25.3209C17.6428 25.2231 17.6282 25.1223 17.5837 25.0334C17.5393 24.9446 17.4675 24.8724 17.3788 24.8276L15.8372 24.0182C15.378 23.7846 15.0076 23.4076 14.7823 22.9443C14.5569 22.481 14.4888 21.9569 14.5885 21.4514C14.6633 21.0159 14.8613 20.6109 15.1591 20.2844C15.4569 19.9579 15.842 19.7236 16.2689 19.6092V19.4627C16.2689 19.2072 16.3704 18.9621 16.5511 18.7814C16.7318 18.6007 16.9768 18.4992 17.2324 18.4992C17.4879 18.4992 17.733 18.6007 17.9137 18.7814C18.0944 18.9621 18.1959 19.2072 18.1959 19.4627V19.8173C18.8087 20.11 19.2957 20.6135 19.5679 21.2356C19.6611 21.468 19.66 21.7276 19.565 21.9593C19.4701 22.191 19.2886 22.3766 19.0591 22.4769C18.8296 22.5771 18.5701 22.584 18.3356 22.4962C18.1011 22.4084 17.91 22.2327 17.8028 22.0064C17.7266 21.8267 17.5951 21.676 17.4273 21.5762C17.2596 21.4763 17.0644 21.4327 16.8701 21.4514C16.7731 21.4542 16.6804 21.4914 16.6083 21.5564C16.5363 21.6214 16.4897 21.7098 16.477 21.806C16.4637 21.9003 16.4803 21.9964 16.5246 22.0808C16.5688 22.1652 16.6384 22.2335 16.7236 22.2762Z" fill="white"/>
<path d="M18.8203 1.37938L17.1091 2.31207C16.9919 2.37972 16.859 2.41534 16.7237 2.41534C16.5884 2.41534 16.4554 2.37972 16.3383 2.31207L13.8639 0.963143C13.7468 0.89549 13.6138 0.859863 13.4785 0.859863C13.3432 0.859863 13.2103 0.89549 13.0931 0.963143L10.6188 2.31207C10.5016 2.37972 10.3687 2.41534 10.2334 2.41534C10.0981 2.41534 9.96517 2.37972 9.84799 2.31207L7.38138 0.963143C7.2642 0.89549 7.13128 0.859863 6.99598 0.859863C6.86067 0.859863 6.72775 0.89549 6.61057 0.963143L4.25188 2.28123C4.13939 2.34195 4.01356 2.37374 3.88573 2.37374C3.75791 2.37374 3.63209 2.34195 3.5196 2.28123L1.8161 1.35625C1.69937 1.29409 1.56862 1.263 1.43641 1.26597C1.30419 1.26895 1.17497 1.30589 1.06116 1.37325C0.947353 1.44061 0.852788 1.53611 0.78656 1.65058C0.720333 1.76505 0.684668 1.89462 0.682999 2.02686V26.6929C0.683353 26.8258 0.718062 26.9564 0.783749 27.0719C0.849437 27.1874 0.94387 27.284 1.05789 27.3523C1.17191 27.4205 1.30165 27.4581 1.4345 27.4615C1.56735 27.4648 1.6988 27.4337 1.8161 27.3713L3.52731 26.4386C3.64449 26.3709 3.77741 26.3353 3.91272 26.3353C4.04802 26.3353 4.18094 26.3709 4.29812 26.4386L6.77244 27.7875C6.88962 27.8552 7.02255 27.8908 7.15785 27.8908C7.29316 27.8908 7.42608 27.8552 7.54326 27.7875L8.99238 27.0167C8.40283 25.6687 8.15871 24.1949 8.28211 22.7288C8.4055 21.2626 8.89252 19.8504 9.6991 18.6199C10.5057 17.3894 11.6063 16.3794 12.9015 15.6813C14.1967 14.9833 15.6455 14.6192 17.1168 14.622C18.1034 14.6265 19.0825 14.7932 20.015 15.1153V2.01145C20.013 1.8733 19.9738 1.73824 19.9016 1.62042C19.8294 1.5026 19.7269 1.40634 19.6048 1.34173C19.4826 1.27712 19.3454 1.24653 19.2074 1.25315C19.0694 1.25977 18.9357 1.30337 18.8203 1.37938ZM5.71642 20.1025H4.5602C4.30466 20.1025 4.05958 20.001 3.87889 19.8203C3.69819 19.6396 3.59668 19.3945 3.59668 19.139C3.59668 18.8834 3.69819 18.6383 3.87889 18.4577C4.05958 18.277 4.30466 18.1754 4.5602 18.1754H5.71642C5.97196 18.1754 6.21705 18.277 6.39774 18.4577C6.57843 18.6383 6.67994 18.8834 6.67994 19.139C6.67994 19.3945 6.57843 19.6396 6.39774 19.8203C6.21705 20.001 5.97196 20.1025 5.71642 20.1025ZM7.97491 16.2484H4.5602C4.30466 16.2484 4.05958 16.1469 3.87889 15.9662C3.69819 15.7855 3.59668 15.5404 3.59668 15.2849C3.59668 15.0293 3.69819 14.7843 3.87889 14.6036C4.05958 14.4229 4.30466 14.3214 4.5602 14.3214H7.97491C8.23045 14.3214 8.47553 14.4229 8.65622 14.6036C8.83692 14.7843 8.93843 15.0293 8.93843 15.2849C8.93843 15.5404 8.83692 15.7855 8.65622 15.9662C8.47553 16.1469 8.23045 16.2484 7.97491 16.2484ZM15.9374 12.3943H4.53707C4.28153 12.3943 4.03646 12.2928 3.85577 12.1121C3.67507 11.9314 3.57355 11.6863 3.57355 11.4308C3.57355 11.1753 3.67507 10.9302 3.85577 10.7495C4.03646 10.5688 4.28153 10.4673 4.53707 10.4673H15.9143C16.1699 10.4673 16.4149 10.5688 16.5956 10.7495C16.7763 10.9302 16.8778 11.1753 16.8778 11.4308C16.8778 11.6863 16.7763 11.9314 16.5956 12.1121C16.4149 12.2928 16.1699 12.3943 15.9143 12.3943H15.9374ZM15.9374 8.54024H4.53707C4.28153 8.54024 4.03646 8.43874 3.85577 8.25805C3.67507 8.07735 3.57355 7.83227 3.57355 7.57673C3.57355 7.32118 3.67507 7.07611 3.85577 6.89542C4.03646 6.71472 4.28153 6.61321 4.53707 6.61321H15.9143C16.1699 6.61321 16.4149 6.71472 16.5956 6.89542C16.7763 7.07611 16.8778 7.32118 16.8778 7.57673C16.8778 7.83227 16.7763 8.07735 16.5956 8.25805C16.4149 8.43874 16.1699 8.54024 15.9143 8.54024H15.9374Z" fill="white"/>
</svg>
