<svg width="27" height="25" viewBox="0 0 27 25" fill="none" xmlns="http://www.w3.org/2000/svg">
<path fill-rule="evenodd" clip-rule="evenodd" d="M24.9554 7.92247V24.2049C24.9559 24.2811 24.9413 24.3567 24.9125 24.4272C24.8836 24.4977 24.841 24.5618 24.7872 24.6157C24.7334 24.6696 24.6695 24.7123 24.5991 24.7412C24.5287 24.7701 24.4532 24.7847 24.3771 24.7842H19.621C19.4694 24.782 19.3249 24.7199 19.2188 24.6114C19.1128 24.5029 19.0539 24.3567 19.055 24.2049V10.3339L23.7501 6.61727L24.8291 7.89014L24.9554 7.92247ZM26.971 0L25.9041 3.01898L24.8291 6.05019L23.7501 4.76101L14.926 11.7373C14.733 11.919 14.4872 12.0343 14.2243 12.0666C13.9615 12.0989 13.6952 12.0464 13.4641 11.9168L6.96108 8.35114L2.07465 12.5369C1.95062 12.6463 1.80611 12.73 1.64952 12.7829C1.49293 12.8358 1.3274 12.857 1.16255 12.8453C0.997707 12.8335 0.83684 12.789 0.689326 12.7143C0.541813 12.6397 0.410593 12.5364 0.303311 12.4104C0.195205 12.2839 0.113122 12.1372 0.0617584 11.9788C0.0103947 11.8204 -0.0092319 11.6534 0.00401083 11.4873C0.0172536 11.3213 0.0630951 11.1595 0.138917 11.0113C0.214738 10.863 0.319043 10.7313 0.445835 10.6235L6.0123 5.87069C6.20749 5.70099 6.44982 5.59519 6.70676 5.56747C6.96371 5.53976 7.22296 5.59147 7.44973 5.71566L13.965 9.31395L22.109 2.86395L20.6716 1.15456L23.8152 0.575236L26.971 0ZM6.61089 10.4971H7.55967L8.54917 11.0356V24.2049C8.54971 24.2811 8.53512 24.3567 8.50626 24.4272C8.47739 24.4977 8.43482 24.5618 8.38102 24.6157C8.32722 24.6696 8.26326 24.7123 8.19286 24.7412C8.12247 24.7701 8.04703 24.7847 7.97095 24.7842H3.21888C3.1428 24.7847 3.06736 24.7701 2.99697 24.7412C2.92657 24.7123 2.86261 24.6696 2.80881 24.6157C2.75501 24.5618 2.71244 24.4977 2.68357 24.4272C2.65471 24.3567 2.64012 24.2811 2.64066 24.2049V13.8873L6.61089 10.4971ZM16.7543 12.1289V24.1926C16.7548 24.2685 16.7404 24.3437 16.7118 24.414C16.6832 24.4843 16.641 24.5482 16.5876 24.602C16.5342 24.6559 16.4707 24.6986 16.4008 24.7278C16.3309 24.7569 16.2559 24.7719 16.1802 24.7719H11.4403C11.3646 24.7719 11.2896 24.7569 11.2196 24.7278C11.1497 24.6986 11.0862 24.6559 11.0329 24.602C10.9795 24.5482 10.9373 24.4843 10.9087 24.414C10.8801 24.3437 10.8656 24.2685 10.8662 24.1926V12.3207L13.4804 13.7608C13.712 13.8886 13.9779 13.94 14.2403 13.9077C14.5027 13.8755 14.7483 13.7613 14.9423 13.5813L16.7543 12.1289Z" fill="white"/>
</svg>
