<svg width="29" height="24" viewBox="0 0 29 24" fill="none" xmlns="http://www.w3.org/2000/svg">
<g clip-path="url(#clip0_2132_1139)">
<path d="M24.8391 21.068C24.6196 21.0659 24.4405 21.2465 24.4405 21.4695C24.4405 22.0084 24.4399 22.5176 24.4412 23.0274C24.4419 23.3587 24.4364 23.6824 24.0878 23.8623C23.7227 24.0505 23.4117 23.9407 23.1095 23.7074C22.0746 22.9093 21.0396 22.1119 19.995 21.3278C19.7769 21.1639 19.5131 21.0749 19.2424 21.0729C17.6906 21.0611 16.1388 21.0763 14.587 21.0624C13.3626 21.0513 12.4158 20.5332 11.8519 19.3948C11.7555 19.201 11.6618 18.9871 11.6433 18.7759C11.5962 18.2349 11.5723 17.6924 11.5449 17.1284C11.534 16.8992 11.7131 16.7075 11.9387 16.7075C11.9476 16.7075 11.9558 16.7075 11.9646 16.7075C13.2286 16.7075 14.4933 16.7138 15.7573 16.7061C17.6837 16.6943 19.189 15.6837 19.8658 13.8535C20.0764 13.284 20.144 12.6352 20.1577 12.0199C20.196 10.3307 20.1707 8.64077 20.1707 6.95089V6.89463C20.1707 6.67306 20.3471 6.49386 20.5652 6.49386C22.2619 6.49386 23.9593 6.49247 25.656 6.49456C27.5154 6.49664 28.7439 7.73436 28.7466 9.61803C28.7507 12.3845 28.7507 15.1503 28.7466 17.9167C28.7439 19.4712 27.9919 20.5339 26.5898 20.9444C26.2993 21.0291 25.9855 21.0472 25.6813 21.0618C25.4065 21.0743 25.131 21.0708 24.8391 21.068Z" fill="white"/>
<path d="M18.69 3.64108C18.6749 1.90743 17.4403 0.666934 15.7416 0.660683C11.5045 0.646792 7.26752 0.652348 3.02982 0.660683C2.38244 0.662072 1.77197 0.835714 1.24423 1.24204C0.40817 1.8866 0.0643136 2.75828 0.067048 3.80708C0.0745677 6.57355 0.0690989 9.34002 0.0711497 12.1065C0.0711497 12.3031 0.0827711 12.5003 0.106014 12.6948C0.25299 13.9464 1.2996 15.032 2.51984 15.1626C3.11732 15.2265 3.72095 15.2286 4.37721 15.2612C4.37721 15.4161 4.37653 15.5529 4.37721 15.6898C4.38063 16.2802 4.36696 16.8705 4.39225 17.4602C4.41344 17.9666 4.91795 18.268 5.37802 18.0666C5.51201 18.0082 5.63574 17.9186 5.75332 17.829C6.78215 17.0449 7.81304 16.2628 8.83367 15.4675C9.05243 15.2966 9.26981 15.2209 9.54873 15.2223C11.5873 15.2334 13.6265 15.2327 15.665 15.2272C17.428 15.2223 18.6749 14.0089 18.6906 12.2183C18.7153 9.35947 18.7146 6.49993 18.69 3.64108ZM1.83145 4.7517C1.83145 4.42803 2.09259 4.1627 2.41115 4.1627H13.4904C13.809 4.1627 14.0701 4.42803 14.0701 4.7517V4.9434C14.0701 5.26707 13.809 5.53239 13.4904 5.53239H2.41115C2.09259 5.53239 1.83145 5.26707 1.83145 4.9434V4.7517ZM1.83145 7.55428C1.83145 7.27923 2.05294 7.05419 2.32365 7.05419H10.1599C10.4306 7.05419 10.6521 7.27923 10.6521 7.55428V7.92449C10.6521 8.19954 10.4306 8.42458 10.1599 8.42458H2.32365C2.05294 8.42458 1.83145 8.19954 1.83145 7.92449V7.55428ZM16.9379 10.6618C16.9379 11.0216 16.648 11.3161 16.2939 11.3161H2.47541C2.1213 11.3161 1.83145 11.0216 1.83145 10.6618V10.6007C1.83145 10.2409 2.1213 9.94638 2.47541 9.94638H16.2939C16.648 9.94638 16.9379 10.2409 16.9379 10.6007V10.6618Z" fill="white"/>
</g>
<defs>
<clipPath id="clip0_2132_1139">
<rect width="28.6829" height="23.3049" fill="white" transform="translate(0.06707 0.652466)"/>
</clipPath>
</defs>
</svg>
