<svg width="38" height="30" viewBox="0 0 38 30" fill="none" xmlns="http://www.w3.org/2000/svg">
<path d="M32.3857 26.28C32.0988 26.2773 31.8647 26.5098 31.8647 26.7968C31.8647 27.4906 31.8638 28.1459 31.8656 28.8022C31.8665 29.2287 31.8593 29.6453 31.4035 29.8769C30.9263 30.1192 30.5196 29.9779 30.1246 29.6775C28.7715 28.6502 27.4184 27.6238 26.0528 26.6144C25.7678 26.4034 25.4228 26.2889 25.0689 26.2863C23.0401 26.2711 21.0114 26.2907 18.9826 26.2728C17.382 26.2585 16.1442 25.5916 15.4069 24.1262C15.2809 23.8767 15.1584 23.6013 15.1343 23.3295C15.0726 22.6331 15.0414 21.9348 15.0056 21.2088C14.9913 20.9138 15.2255 20.667 15.5204 20.667C15.532 20.667 15.5427 20.667 15.5543 20.667C17.2068 20.667 18.8602 20.675 20.5127 20.6652C23.0312 20.65 24.9992 19.3491 25.8839 16.9932C26.1592 16.2601 26.2477 15.425 26.2656 14.6329C26.3156 12.4585 26.2825 10.2832 26.2825 8.10793V8.03551C26.2825 7.7503 26.5131 7.51963 26.7982 7.51963C29.0164 7.51963 31.2355 7.51784 33.4537 7.52052C35.8846 7.5232 37.4906 9.11644 37.4942 11.5412C37.4996 15.1023 37.4996 18.6625 37.4942 22.2236C37.4906 24.2245 36.5076 25.5924 34.6745 26.1208C34.2947 26.2299 33.8845 26.2532 33.4868 26.2719C33.1275 26.288 32.7673 26.2836 32.3857 26.28Z" fill="white"/>
<path d="M20.4921 0.0108916C22.713 0.0189383 24.327 1.61576 24.3467 3.84737C24.3789 7.52738 24.3797 11.2083 24.3476 14.8883C24.327 17.1932 22.6969 18.7552 20.392 18.7614C17.7269 18.7686 15.061 18.7695 12.3959 18.7552C12.0313 18.7534 11.7471 18.8508 11.4611 19.0708C10.1267 20.0945 8.77901 21.1012 7.43397 22.1106C7.28025 22.226 7.11848 22.3413 6.94332 22.4164C6.34184 22.6757 5.68228 22.2877 5.65457 21.6359C5.62151 20.8768 5.63938 20.1168 5.63491 19.3569C5.63402 19.1807 5.63491 19.0046 5.63491 18.8052C4.77694 18.7632 3.98779 18.7605 3.20668 18.6783C1.61139 18.5102 0.243112 17.1128 0.0509631 15.5016C0.0205767 15.2513 0.00538345 14.9974 0.00538345 14.7444C0.00270229 11.1833 0.00985204 7.62215 2.11414e-05 4.06105C-0.00355373 2.711 0.445986 1.58893 1.539 0.759232C2.22895 0.236198 3.02704 0.0126798 3.87339 0.0108916C9.41355 0.000162738 14.9528 -0.00698986 20.4921 0.0108916Z" fill="white"/>
</svg>
