<svg width="34" height="26" viewBox="0 0 34 26" fill="none" xmlns="http://www.w3.org/2000/svg">
<path d="M32.7345 6.43967C30.5191 6.16006 28.3881 4.46809 27.4963 3.67587C27.3749 3.57008 27.2205 3.51196 27.061 3.51196C26.9014 3.51196 26.747 3.57008 26.6256 3.67587C25.7338 4.46809 23.6028 6.16006 21.3874 6.43967C21.2174 6.46027 21.0612 6.54547 20.95 6.67833C20.8387 6.81118 20.7806 6.98194 20.787 7.15661C21.0609 14.032 25.4881 17.0504 26.7344 17.7673C26.8344 17.8238 26.9467 17.8534 27.061 17.8534C27.1752 17.8534 27.2875 17.8238 27.3875 17.7673C28.6338 17.0504 33.061 14.032 33.3349 7.15661C33.3413 6.98194 33.2832 6.81118 33.1719 6.67833C33.0607 6.54547 32.9045 6.46027 32.7345 6.43967ZM27.061 14.0858C26.4003 14.0865 25.7543 13.8871 25.2047 13.5128C24.6551 13.1385 24.2266 12.6061 23.9734 11.983C23.7203 11.3599 23.6539 10.6742 23.7826 10.0126C23.9113 9.35096 24.2294 8.7432 24.6965 8.26622C25.1637 7.78924 25.7589 7.46449 26.4069 7.33306C27.0549 7.20164 27.7265 7.26945 28.3368 7.52792C28.947 7.78639 29.4684 8.22389 29.835 8.78505C30.2016 9.34621 30.397 10.0058 30.3963 10.6804C30.3953 11.5833 30.0436 12.4489 29.4183 13.0873C28.7931 13.7258 27.9452 14.0849 27.061 14.0858Z" fill="white"/>
<path d="M12.7195 17.8535C12.4818 17.8535 12.2538 17.9565 12.0857 18.1399C11.9176 18.3233 11.8232 18.572 11.8232 18.8313V24.0464C11.8232 24.3058 11.9176 24.5545 12.0857 24.7378C12.2538 24.9212 12.4818 25.0242 12.7195 25.0242C12.9572 25.0242 13.1852 24.9212 13.3533 24.7378C13.5214 24.5545 13.6158 24.3058 13.6158 24.0464V18.8313C13.6158 18.572 13.5214 18.3233 13.3533 18.1399C13.1852 17.9565 12.9572 17.8535 12.7195 17.8535Z" fill="white"/>
<path d="M7.92359 17.1244C7.8996 17.053 7.85405 16.9909 7.79329 16.9467C7.73254 16.9025 7.65961 16.8785 7.58463 16.8779H5.81769C5.07586 16.8769 4.34113 17.0231 3.65558 17.3082C2.97004 17.5932 2.34713 18.0114 1.82258 18.5388C1.29802 19.0662 0.882112 19.6925 0.598662 20.3819C0.315213 21.0712 0.169801 21.8099 0.17075 22.5558V25.0794C0.17075 25.3025 0.258888 25.5164 0.415778 25.6742C0.572668 25.8319 0.785451 25.9206 1.00733 25.9206H10.2819C10.3387 25.9209 10.3948 25.9077 10.4456 25.8822C10.4963 25.8566 10.5404 25.8193 10.5742 25.7734C10.6079 25.7274 10.6304 25.6741 10.6397 25.6178C10.6491 25.5614 10.6451 25.5037 10.6281 25.4492L7.92359 17.1244ZM19.6214 16.8779H17.8616C17.7857 16.878 17.7116 16.9018 17.6496 16.9459C17.5877 16.9901 17.5408 17.0524 17.5155 17.1244L14.8182 25.4492C14.8012 25.5037 14.7972 25.5614 14.8065 25.6178C14.8159 25.6741 14.8384 25.7274 14.8721 25.7734C14.9059 25.8193 14.9499 25.8566 15.0007 25.8822C15.0515 25.9077 15.1076 25.9209 15.1644 25.9206H24.4317C24.6536 25.9206 24.8664 25.8319 25.0233 25.6742C25.1802 25.5164 25.2683 25.3025 25.2683 25.0794V22.5558C25.2693 21.8099 25.1238 21.0712 24.8404 20.3819C24.5569 19.6925 24.141 19.0662 23.6165 18.5388C23.0919 18.0114 22.469 17.5932 21.7835 17.3082C21.0979 17.0231 20.3632 16.8769 19.6214 16.8779ZM19.6214 7.79897C19.6228 6.42038 19.2175 5.07234 18.4568 3.92538C17.6962 2.77843 16.6142 1.88411 15.3479 1.35555C14.0816 0.82699 12.6879 0.68795 11.343 0.95602C9.99811 1.22409 8.7625 1.88722 7.7925 2.86153C6.82251 3.83583 6.16171 5.07753 5.8937 6.42952C5.62569 7.78152 5.76253 9.18307 6.28688 10.4569C6.81124 11.7306 7.69955 12.8194 8.83945 13.5855C9.97935 14.3515 11.3196 14.7604 12.6907 14.7604C13.6027 14.7643 14.5064 14.5871 15.3501 14.239C16.1939 13.891 16.961 13.3789 17.6075 12.7322C18.2541 12.0855 18.7673 11.3168 19.1178 10.4703C19.4683 9.62373 19.6493 8.71595 19.6502 7.79897H19.6214Z" fill="white"/>
<path d="M25.2682 10.2346L26.923 11.5792L28.8536 8.89014" stroke="white" stroke-linecap="round"/>
</svg>
