<svg width="39" height="29" viewBox="0 0 39 29" fill="none" xmlns="http://www.w3.org/2000/svg">
<g clip-path="url(#clip0_933_1389)">
<path d="M13.3858 9.15607C14.5793 9.38717 15.3553 10.5101 15.1163 11.664L15.0103 12.1702C14.7662 13.355 14.3167 14.4828 13.6888 15.5081H20.2994C21.5164 15.5081 22.5029 16.4618 22.5029 17.6385C22.5029 18.7614 21.6073 19.681 20.4694 19.764C20.8229 20.1415 21.0333 20.6428 21.0333 21.188C21.0333 22.2263 20.2623 23.0921 19.2473 23.2793C19.4493 23.5983 19.5637 23.9808 19.5637 24.3844C19.5637 25.3299 18.9257 26.1339 18.0437 26.4089C18.0756 26.5554 18.0942 26.71 18.0942 26.8711C18.0942 28.0478 17.1077 29.0015 15.8907 29.0015H12.5172C11.6452 29.0015 10.7951 28.7525 10.0696 28.2871L8.30208 27.1462C7.0766 26.3569 6.34097 25.024 6.34097 23.5999V21.8992V19.7688V18.6638C6.34097 17.3683 6.95203 16.1477 7.99403 15.3356L8.33407 15.0736C9.55113 14.1329 10.381 12.8098 10.684 11.3369L10.7901 10.8307C11.0308 9.67523 12.1923 8.92497 13.3858 9.15607Z" fill="white"/>
<path d="M5.66936 27.1172C5.66936 27.3352 5.46568 27.5191 5.20812 27.5257C5.20644 27.5257 5.20476 27.5257 5.20476 27.5257C3.74024 27.5631 3.74529 27.5615 3.3194 26.375C2.27235 23.4667 1.21857 20.5617 0.168155 17.655C-0.188716 16.6655 -0.0220641 16.4702 1.18659 16.4702C2.50802 16.4686 3.82777 16.4702 5.18456 16.4702C5.45221 16.4702 5.67105 16.6541 5.67105 16.8787V27.1172H5.66936Z" fill="white"/>
<path d="M25.6138 19.8454C24.4203 19.6143 23.6443 18.4914 23.8833 17.3375L23.9894 16.8314C24.2335 15.6466 24.6829 14.5187 25.3108 13.4934H18.7003C17.4832 13.4934 16.4968 12.5397 16.4968 11.363C16.4968 10.2401 17.3923 9.32056 18.5303 9.23756C18.1768 8.85998 17.9664 8.35872 17.9664 7.81351C17.9664 6.77518 18.7373 5.90937 19.7524 5.72221C19.5504 5.40322 19.4359 5.02076 19.4359 4.61715C19.4359 3.67159 20.0739 2.86761 20.956 2.59257C20.924 2.4461 20.9055 2.29149 20.9055 2.13037C20.9055 0.953701 21.8919 0 23.109 0H26.4841C27.3561 0 28.2062 0.249004 28.9317 0.714462L30.6993 1.85532C31.9231 2.64465 32.657 3.97755 32.657 5.40159V7.10231V9.23267V10.3377C32.657 11.6332 32.0459 12.8538 31.0039 13.6659L30.6639 13.9279C29.4468 14.8686 28.6169 16.1918 28.3139 17.6646L28.2079 18.1708C27.9689 19.3263 26.8073 20.0749 25.6138 19.8454Z" fill="white"/>
<path d="M33.3303 1.88466C33.3303 1.66658 33.534 1.48267 33.7915 1.47616C33.7932 1.47616 33.7949 1.47616 33.7949 1.47616C35.2594 1.43873 35.2543 1.44036 35.6802 2.62679C36.7273 5.53509 37.7811 8.44013 38.8315 11.3468C39.1883 12.3363 39.0217 12.5316 37.813 12.5316C36.4916 12.5332 35.1719 12.5316 33.8151 12.5316C33.5474 12.5316 33.3286 12.3477 33.3286 12.1231V1.88466H33.3303Z" fill="white"/>
</g>
<defs>
<clipPath id="clip0_933_1389">
<rect width="39" height="29" fill="white"/>
</clipPath>
</defs>
</svg>
