<svg width="38" height="27" viewBox="0 0 38 27" fill="none" xmlns="http://www.w3.org/2000/svg">
<path d="M21.2171 12.4466V10.9368C21.2171 10.1989 20.9239 9.49122 20.4022 8.96944C19.8804 8.44767 19.1727 8.15454 18.4348 8.15454C17.6969 8.15454 16.9892 8.44767 16.4675 8.96944C15.9457 9.49122 15.6526 10.1989 15.6526 10.9368V12.4466H14.5658V17.0894H22.3073V12.4466H21.2171ZM16.7634 12.4466V10.9368C16.7634 10.7173 16.8066 10.5 16.8906 10.2972C16.9746 10.0944 17.0977 9.91013 17.2529 9.75493C17.4081 9.59972 17.5924 9.4766 17.7952 9.39261C17.998 9.30861 18.2153 9.26538 18.4348 9.26538C18.6543 9.26538 18.8716 9.30861 19.0744 9.39261C19.2772 9.4766 19.4615 9.59972 19.6167 9.75493C19.7719 9.91013 19.895 10.0944 19.979 10.2972C20.063 10.5 20.1062 10.7173 20.1062 10.9368V12.4466H16.7668H16.7634Z" fill="white"/>
<path d="M8.1235 17.805H7.64094C7.37349 17.805 7.11699 17.6988 6.92788 17.5097C6.73876 17.3205 6.63252 17.064 6.63252 16.7966V14.39C6.63252 13.8332 6.31082 13.7033 5.92106 14.093L0.291243 19.7229C0.104596 19.9126 0 20.1681 0 20.4343C0 20.7005 0.104596 20.956 0.291243 21.1458L5.92106 26.7756C6.31082 27.1654 6.63252 27.0354 6.63252 26.4786V24.27C6.63252 24.0026 6.73876 23.7461 6.92788 23.557C7.11699 23.3679 7.37349 23.2616 7.64094 23.2616H12.052C10.4905 21.6381 9.16775 19.8009 8.1235 17.805Z" fill="white"/>
<path d="M36.7862 19.7229L31.1625 14.093C30.7666 13.7033 30.4449 13.8332 30.4449 14.39V16.7966C30.4449 17.064 30.3387 17.3205 30.1496 17.5097C29.9604 17.6988 29.7039 17.805 29.4365 17.805H28.9292C27.8969 19.802 26.5821 21.6398 25.0254 23.2616H29.4365C29.7039 23.2616 29.9604 23.3679 30.1496 23.557C30.3387 23.7461 30.4449 24.0026 30.4449 24.27V26.4786C30.4449 27.0354 30.7666 27.1654 31.1625 26.7756L36.7862 21.1458C36.9728 20.956 37.0774 20.7005 37.0774 20.4343C37.0774 20.1681 36.9728 19.9126 36.7862 19.7229Z" fill="white"/>
<path d="M18.5295 26.9365C4.51063 19.0362 6.52747 4.33063 6.52747 4.33063C14.8856 3.09331 18.5295 0 18.5295 0C18.5295 0 22.1672 3.09331 30.5315 4.33063C30.5315 4.33063 32.5422 19.0362 18.5295 26.9365ZM25.5018 13.4621C25.5055 12.0823 25.0997 10.7324 24.3358 9.58341C23.5719 8.43438 22.4843 7.53783 21.2106 7.00727C19.9369 6.47671 18.5344 6.33599 17.1807 6.60292C15.8269 6.86984 14.5829 7.53243 13.6059 8.50678C12.629 9.48113 11.9631 10.7234 11.6925 12.0764C11.422 13.4294 11.559 14.8323 12.0861 16.1074C12.6133 17.3825 13.507 18.4725 14.6539 19.2395C15.8009 20.0064 17.1497 20.4158 18.5295 20.4158C20.3754 20.4158 22.1461 19.6838 23.4531 18.3802C24.7601 17.0767 25.4969 15.308 25.5018 13.4621Z" fill="white"/>
</svg>
