<svg width="31" height="36" viewBox="0 0 31 36" fill="none" xmlns="http://www.w3.org/2000/svg">
<path d="M28.1421 23.231C27.3802 22.7272 26.5323 22.3674 25.6406 22.1692C23.3114 21.5633 20.682 21.4021 18.842 18.9673C18.842 18.9673 17.8969 17.9055 20.026 15.2983C22.1551 12.6912 22.3386 8.54416 21.8049 5.34774C21.2712 2.15133 18.2527 0 15.1119 0C11.9711 0 8.95253 2.13465 8.4411 5.33107C7.92968 8.52748 8.08532 12.6745 10.22 15.2816C12.3546 17.8888 11.404 18.9506 11.404 18.9506C9.58069 21.3687 6.95686 21.5411 4.65544 22.1414C3.7459 22.3383 2.88075 22.702 2.10386 23.2143C-0.581125 25.1266 0.0692742 29.4626 0.0692742 29.4626H8.07977V27.7227H9.84196V26.055C9.84196 24.6543 10.3984 23.3111 11.3887 22.3207C12.3791 21.3303 13.7224 20.7739 15.123 20.7739C16.5236 20.7739 17.8669 21.3303 18.8573 22.3207C19.8476 23.3111 20.404 24.6543 20.404 26.055V27.7227H22.1607V29.4626H30.1712C30.1712 29.4626 30.8049 25.1266 28.1421 23.231Z" fill="white"/>
<path d="M19.6091 28.4952V26.0548C19.6091 24.8621 19.1353 23.7182 18.2919 22.8748C17.4485 22.0314 16.3046 21.5576 15.1119 21.5576C13.9191 21.5576 12.7752 22.0314 11.9318 22.8748C11.0884 23.7182 10.6146 24.8621 10.6146 26.0548V28.4952H8.85799V35.9999H21.3713V28.4952H19.6091ZM12.4102 28.4952V26.0548C12.4102 25.7 12.4801 25.3487 12.6158 25.021C12.7516 24.6932 12.9506 24.3953 13.2015 24.1445C13.4523 23.8936 13.7502 23.6946 14.078 23.5588C14.4058 23.423 14.7571 23.3532 15.1119 23.3532C15.4666 23.3532 15.8179 23.423 16.1457 23.5588C16.4735 23.6946 16.7713 23.8936 17.0222 24.1445C17.2731 24.3953 17.4721 24.6932 17.6079 25.021C17.7436 25.3487 17.8135 25.7 17.8135 26.0548V28.4952H12.4157H12.4102Z" fill="white"/>
</svg>
