<svg width="28" height="28" viewBox="0 0 28 28" fill="none" xmlns="http://www.w3.org/2000/svg">
<path d="M17.5881 20.1719C17.7464 20.3456 17.5984 21.0212 17.3654 21.1245C16.7089 21.4154 16.0502 21.7049 15.3761 21.9511C15.1431 22.0361 15.0471 22.1438 15.0053 22.3703C14.8917 22.9946 14.7518 23.6145 14.6426 24.2396C14.6008 24.4799 14.4924 24.5679 14.2535 24.5664C13.1911 24.5591 12.1286 24.5576 11.0662 24.5664C10.8193 24.5686 10.7277 24.466 10.6859 24.2315C10.5738 23.5947 10.45 22.9594 10.3012 22.33C10.2705 22.1973 10.1371 22.0412 10.0118 21.9855C9.3333 21.6844 8.63649 21.4257 7.96092 21.1194C7.77187 21.0337 7.65757 21.0505 7.50223 21.1568C6.97834 21.5158 6.43905 21.8514 5.92175 22.2193C5.69168 22.3827 5.5422 22.393 5.33338 22.1761C4.62997 21.4469 3.9141 20.7281 3.18211 20.0283C2.94324 19.7997 2.94324 19.6297 3.12569 19.3754C3.49351 18.8595 3.84229 18.329 4.18007 17.7926C4.24162 17.6936 4.25774 17.5192 4.21524 17.4108C3.93681 16.6963 3.64665 15.9863 3.33305 15.2872C3.27809 15.1648 3.10517 15.0505 2.96742 15.019C2.33728 14.8732 1.70201 14.7515 1.06601 14.6357C0.846192 14.5954 0.754602 14.4973 0.756067 14.2701C0.763395 13.1958 0.763395 12.1208 0.756067 11.0459C0.754602 10.8106 0.863777 10.7293 1.07627 10.6897C1.71154 10.5725 2.34387 10.4347 2.97988 10.3182C3.19603 10.2794 3.29421 10.1797 3.37408 9.96647C3.62467 9.29377 3.89871 8.62841 4.20059 7.97697C4.29291 7.77692 4.28046 7.65674 4.16469 7.48893C3.80346 6.96793 3.46714 6.4286 3.10078 5.91052C2.93298 5.6731 2.96009 5.51482 3.16452 5.31624C3.90823 4.59225 4.64022 3.85654 5.36782 3.11716C5.53634 2.94569 5.6697 2.9303 5.86973 3.071C6.40975 3.44984 6.96808 3.80085 7.50956 4.17603C7.67149 4.28815 7.78506 4.28302 7.96824 4.20021C8.63355 3.9005 9.30912 3.62205 9.99275 3.36484C10.1943 3.28937 10.2792 3.18751 10.3159 2.98966C10.4346 2.3536 10.5753 1.72195 10.6874 1.08516C10.7299 0.848471 10.8281 0.753943 11.0735 0.756141C12.1235 0.7664 13.1735 0.767133 14.2242 0.756874C14.4997 0.753943 14.6067 0.862394 14.6514 1.12986C14.7554 1.75565 14.8969 2.37485 15.0126 2.99845C15.05 3.2007 15.1496 3.29303 15.3467 3.36777C16.0179 3.62132 16.6818 3.89757 17.3368 4.19215C17.5244 4.27642 17.6504 4.29621 17.8263 4.17383C18.3663 3.79572 18.9246 3.44472 19.4646 3.06733C19.6661 2.92664 19.8002 2.95009 19.9673 3.12083C20.0581 3.21389 20.149 3.30622 20.2406 3.39855C19.0954 4.23685 17.9655 5.22391 16.8107 6.39343C13.8124 4.40612 9.82056 4.82454 7.27362 7.42518C4.71203 10.0405 4.44166 14.1653 6.62004 17.1323C8.7735 20.0664 12.9698 21.1795 16.5741 19.0984C16.903 19.4457 17.2511 19.8041 17.5881 20.1719Z" fill="white"/>
<path d="M20.8075 3.97229C19.781 5.0253 18.8189 6.13107 17.9169 7.2874C17.6846 7.0595 17.437 6.847 17.1754 6.65061C18.2254 5.58954 19.3384 4.59882 20.5503 3.71582C20.551 3.71582 20.551 3.71509 20.5518 3.71436C20.636 3.80082 20.721 3.88656 20.8075 3.97229Z" fill="white"/>
<path d="M24.5694 14.2776C24.5709 14.5077 24.4683 14.5978 24.2529 14.6374C23.6169 14.7539 22.9853 14.8939 22.3485 15.0097C22.1309 15.0485 22.0335 15.1489 21.9543 15.3614C21.7081 16.0224 21.437 16.676 21.1476 17.3194C20.9908 17.6682 20.3585 17.7547 20.0822 17.4952C19.754 17.1882 19.425 16.8812 19.1136 16.5903C20.9226 13.3125 20.2647 9.85454 18.2262 7.60856C19.1348 6.43978 20.1005 5.32961 21.1176 4.28467C21.4649 4.63347 21.8151 4.98008 22.1675 5.32302C22.3742 5.5238 22.3954 5.67622 22.2262 5.91364C21.8517 6.44051 21.5132 6.99376 21.141 7.52209C21.0208 7.6921 21.0523 7.80495 21.13 7.97862C21.4238 8.63446 21.7052 9.29616 21.9558 9.96958C22.0357 10.1858 22.1419 10.2796 22.3537 10.3184C22.9897 10.4364 23.622 10.5749 24.258 10.6892C24.4807 10.7287 24.5709 10.8284 24.5694 11.0534C24.5635 12.1276 24.5635 13.2026 24.5694 14.2776Z" fill="white"/>
<path d="M18.9473 20.1278C18.4388 19.6449 17.9383 19.1693 17.517 18.7692C17.9317 18.3251 18.3039 17.9265 18.704 17.4985C19.1488 17.9668 19.6236 18.4658 20.0698 18.9348C20.3446 18.7985 20.538 18.6776 20.7483 18.6028C21.1293 18.4673 21.47 18.5713 21.7514 18.8512C23.6015 20.692 25.4524 22.532 27.2966 24.3794C27.7744 24.8579 27.7575 25.4822 27.2768 25.9717C26.8409 26.415 26.4012 26.8554 25.9579 27.2914C25.489 27.7516 24.8559 27.7692 24.3914 27.3075C22.5486 25.4763 20.7117 23.6392 18.8791 21.797C18.4497 21.3654 18.4322 20.8334 18.7949 20.3388C18.8352 20.2824 18.8762 20.2252 18.9473 20.1278Z" fill="white"/>
<path d="M16.467 7.3855C16.3695 7.48956 16.2721 7.59434 16.1753 7.69913C16.0149 7.87353 15.8559 8.0494 15.6991 8.22673C16.0376 8.46122 16.349 8.73382 16.6245 9.03865C16.8443 8.72356 17.0685 8.41139 17.2971 8.10363C17.0414 7.84202 16.7637 7.60167 16.467 7.3855ZM17.6005 8.43484C17.3682 8.74921 17.1403 9.06723 16.9168 9.38966C17.6166 10.3056 18.0306 11.4568 18.0247 12.7048C18.0101 15.6791 15.5994 18.0269 12.5564 18.0291C9.66804 18.0313 7.28669 15.5795 7.29548 12.6132C7.30354 9.64027 9.70687 7.28438 12.722 7.2939C13.6672 7.29683 14.5538 7.54964 15.3217 7.99004C15.4976 7.79073 15.6742 7.59508 15.8515 7.40162C15.9335 7.31222 16.0163 7.22356 16.0977 7.13562C15.1297 6.52668 13.9948 6.16835 12.785 6.15589C9.12948 6.11779 6.18541 8.9771 6.15464 12.5956C6.12459 16.184 9.00859 19.1283 12.585 19.162C16.1863 19.195 19.1245 16.3108 19.1626 12.7062C19.1795 11.0875 18.586 9.58897 17.6005 8.43484Z" fill="white"/>
<path d="M21.9587 2.81273C21.9557 2.85523 21.9235 2.87062 21.9015 2.89114C21.5285 3.24507 21.1644 3.60487 20.8076 3.97199C19.781 5.025 18.8189 6.13076 17.917 7.28709C17.7074 7.55602 17.5008 7.82862 17.2971 8.10341C17.0685 8.41118 16.8443 8.72334 16.6244 9.03844C16.3511 9.42974 16.0837 9.82691 15.8228 10.2285C14.6769 11.9915 13.6591 13.8272 12.722 15.7089C12.6927 15.7683 12.6626 15.8269 12.6282 15.8958C11.4221 13.9891 10.2241 12.0934 9.02319 10.1933C9.07522 10.1808 9.10159 10.2219 9.1331 10.2453C10.1399 11.0184 11.1474 11.7915 12.1519 12.5675C12.2259 12.6247 12.2574 12.6283 12.3153 12.5448C13.3609 11.0404 14.4827 9.59609 15.699 8.22652C15.8558 8.04918 16.0148 7.87332 16.1753 7.69892C16.272 7.59413 16.3695 7.48934 16.4669 7.38528L17.1755 6.65031C18.2254 5.58924 19.3384 4.59852 20.5504 3.71552C20.5511 3.71552 20.5511 3.71478 20.5518 3.71405C20.9739 3.40628 21.4091 3.11683 21.8575 2.84717C21.8854 2.83105 21.9103 2.79881 21.9587 2.81273Z" fill="white"/>
<path d="M21.9587 2.81273C21.9557 2.85523 21.9235 2.87062 21.9015 2.89114C21.5285 3.24507 21.1644 3.60487 20.8076 3.97199C19.781 5.025 18.8189 6.13076 17.917 7.28709C17.7074 7.55602 17.5008 7.82862 17.2971 8.10341C17.0685 8.41118 16.8443 8.72334 16.6244 9.03844C16.3511 9.42974 16.0837 9.82691 15.8228 10.2285C14.6769 11.9915 13.6591 13.8272 12.722 15.7089C12.6927 15.7683 12.6626 15.8269 12.6282 15.8958C11.4221 13.9891 10.2241 12.0934 9.02319 10.1933C9.07522 10.1808 9.10159 10.2219 9.1331 10.2453C10.1399 11.0184 11.1474 11.7915 12.1519 12.5675C12.2259 12.6247 12.2574 12.6283 12.3153 12.5448C13.3609 11.0404 14.4827 9.59609 15.699 8.22652C15.8558 8.04918 16.0148 7.87332 16.1753 7.69892C16.272 7.59413 16.3695 7.48934 16.4669 7.38528L17.1755 6.65031C18.2254 5.58924 19.3384 4.59852 20.5504 3.71552C20.5511 3.71552 20.5511 3.71478 20.5518 3.71405C20.9739 3.40628 21.4091 3.11683 21.8575 2.84717C21.8854 2.83105 21.9103 2.79881 21.9587 2.81273Z" fill="white"/>
</svg>
