<svg width="24" height="24" viewBox="0 0 24 24" fill="none" xmlns="http://www.w3.org/2000/svg">
<path d="M22.1303 0.652344H19.3055C18.9309 0.652344 18.5716 0.806241 18.3068 1.08018C18.0419 1.35411 17.8931 1.72565 17.8931 2.11305C17.8931 2.50045 17.7443 2.87199 17.4794 3.14593C17.2145 3.41986 16.8552 3.57376 16.4806 3.57376C16.1061 3.57376 15.7468 3.41986 15.4819 3.14593C15.217 2.87199 15.0682 2.50045 15.0682 2.11305C15.0682 1.72565 14.9194 1.35411 14.6545 1.08018C14.3897 0.806241 14.0304 0.652344 13.6558 0.652344H10.1248C9.75018 0.652344 9.39092 0.806241 9.12604 1.08018C8.86116 1.35411 8.71236 1.72565 8.71236 2.11305C8.71236 2.50045 8.56355 2.87199 8.29867 3.14593C8.03379 3.41986 7.67454 3.57376 7.29994 3.57376C6.92534 3.57376 6.56609 3.41986 6.30121 3.14593C6.03633 2.87199 5.88752 2.50045 5.88752 2.11305C5.88752 1.72565 5.73871 1.35411 5.47383 1.08018C5.20895 0.806241 4.8497 0.652344 4.47511 0.652344H1.65027C1.27567 0.652344 0.91642 0.806241 0.65154 1.08018C0.386661 1.35411 0.237854 1.72565 0.237854 2.11305V18.9112C0.237854 19.2986 0.386661 19.6701 0.65154 19.944C0.91642 20.218 1.27567 20.3719 1.65027 20.3719H22.1303C22.5049 20.3719 22.8642 20.218 23.129 19.944C23.3939 19.6701 23.5427 19.2986 23.5427 18.9112V2.11305C23.5427 1.72565 23.3939 1.35411 23.129 1.08018C22.8642 0.806241 22.5049 0.652344 22.1303 0.652344ZM6.33243 7.29125C6.73609 7.29125 7.13069 7.41504 7.46632 7.64697C7.80195 7.87889 8.06354 8.20855 8.21802 8.59423C8.37249 8.97991 8.41291 9.40431 8.33416 9.81374C8.25541 10.2232 8.06103 10.5993 7.7756 10.8945C7.49017 11.1897 7.1265 11.3907 6.7306 11.4721C6.3347 11.5536 5.92433 11.5118 5.5514 11.352C5.17846 11.1923 4.85971 10.9217 4.63545 10.5746C4.41119 10.2275 4.29149 9.81942 4.29149 9.40196C4.29149 8.84217 4.50652 8.3053 4.88927 7.90946C5.27202 7.51363 5.79114 7.29125 6.33243 7.29125ZM9.80698 15.5296C9.81081 15.664 9.7633 15.7945 9.67474 15.893C9.58618 15.9914 9.4637 16.0498 9.33382 16.0555H3.37342C3.24354 16.0498 3.12106 15.9914 3.0325 15.893C2.94394 15.7945 2.89643 15.664 2.90026 15.5296V15.0695C2.88498 14.629 3.0392 14.2002 3.32911 13.8771C3.61902 13.554 4.02097 13.363 4.44686 13.3459H8.22507C8.43897 13.3496 8.65001 13.3974 8.84585 13.4864C9.04169 13.5755 9.2184 13.704 9.36568 13.8645C9.51295 14.0249 9.62783 14.2141 9.7036 14.421C9.77937 14.6279 9.81452 14.8484 9.80698 15.0695V15.5296ZM19.3055 15.0695H12.9496C12.7155 15.0695 12.491 14.9733 12.3254 14.8021C12.1599 14.6309 12.0668 14.3987 12.0668 14.1566C12.0668 13.9144 12.1599 13.6822 12.3254 13.511C12.491 13.3398 12.7155 13.2436 12.9496 13.2436H19.3055C19.5396 13.2436 19.7641 13.3398 19.9297 13.511C20.0952 13.6822 20.1882 13.9144 20.1882 14.1566C20.1882 14.3987 20.0952 14.6309 19.9297 14.8021C19.7641 14.9733 19.5396 15.0695 19.3055 15.0695ZM19.3055 11.4177H12.9496C12.7155 11.4177 12.491 11.3216 12.3254 11.1503C12.1599 10.9791 12.0668 10.7469 12.0668 10.5048C12.0668 10.2627 12.1599 10.0305 12.3254 9.85925C12.491 9.68804 12.7155 9.59186 12.9496 9.59186H19.3055C19.5396 9.59186 19.7641 9.68804 19.9297 9.85925C20.0952 10.0305 20.1882 10.2627 20.1882 10.5048C20.1882 10.7469 20.0952 10.9791 19.9297 11.1503C19.7641 11.3216 19.5396 11.4177 19.3055 11.4177Z" fill="white"/>
<path d="M21.5621 21.7722H1.32211C1.03454 21.7722 0.758745 21.8667 0.555402 22.0347C0.352059 22.2028 0.237823 22.4308 0.237823 22.6686C0.237823 22.9063 0.352059 23.1343 0.555402 23.3024C0.758745 23.4705 1.03454 23.5649 1.32211 23.5649H21.5621C21.8496 23.5649 22.1254 23.4705 22.3288 23.3024C22.5321 23.1343 22.6464 22.9063 22.6464 22.6686C22.6464 22.4308 22.5321 22.2028 22.3288 22.0347C22.1254 21.8667 21.8496 21.7722 21.5621 21.7722Z" fill="white"/>
</svg>
