<svg width="35" height="27" viewBox="0 0 35 27" fill="none" xmlns="http://www.w3.org/2000/svg">
<path d="M32.6854 0H30.8944C29.9053 0 29.1034 0.801852 29.1034 1.79098V25.0737C29.1034 26.0628 29.9053 26.8647 30.8944 26.8647H32.6854C33.6745 26.8647 34.4763 26.0628 34.4763 25.0737V1.79098C34.4763 0.801852 33.6745 0 32.6854 0Z" fill="white"/>
<path d="M26.2916 2.57905L6.14306 8.2475C6.05005 8.27463 5.96836 8.33119 5.91023 8.40869C5.8521 8.48619 5.82068 8.58046 5.82068 8.67733V19.3695V22.9514C5.82126 23.6573 6.07147 24.3403 6.52706 24.8794C6.98265 25.4186 7.61425 25.7792 8.31014 25.8976L14.883 26.9901C15.0469 27.0034 15.2117 27.0034 15.3756 26.9901C16.1673 26.9877 16.9257 26.6716 17.4847 26.1109C18.0437 25.5503 18.3575 24.7909 18.3575 23.9992V22.7455L26.3005 24.9036C26.3667 24.9214 26.436 24.9238 26.5033 24.9106C26.5705 24.8974 26.6338 24.8689 26.6883 24.8274C26.7428 24.7859 26.787 24.7324 26.8176 24.6711C26.8482 24.6098 26.8643 24.5423 26.8647 24.4738V2.98202C26.8607 2.91481 26.8416 2.84937 26.8088 2.79057C26.776 2.73176 26.7303 2.68111 26.6753 2.64239C26.6202 2.60366 26.5571 2.57786 26.4907 2.56689C26.4242 2.55593 26.3562 2.56008 26.2916 2.57905ZM15.6711 24.0171C15.67 24.0612 15.66 24.1046 15.6415 24.1446C15.623 24.1847 15.5965 24.2205 15.5636 24.2499C15.53 24.2768 15.4911 24.2964 15.4494 24.3072C15.4078 24.318 15.3643 24.3198 15.3218 24.3126L8.75789 23.2201C8.6875 23.2093 8.62338 23.1735 8.57731 23.1192C8.53124 23.0649 8.50633 22.9958 8.50715 22.9246V20.1396L15.6711 22.0828V24.0171ZM3.13421 8.95494H1.79098C1.31598 8.95494 0.860438 9.14363 0.524564 9.47951C0.188691 9.81538 0 10.2709 0 10.7459V17.0143C0 17.4893 0.188691 17.9449 0.524564 18.2808C0.860438 18.6166 1.31598 18.8053 1.79098 18.8053H3.13421C3.25296 18.8053 3.36685 18.7582 3.45082 18.6742C3.53479 18.5902 3.58196 18.4763 3.58196 18.3576V9.39373C3.57961 9.27654 3.5314 9.16494 3.44769 9.0829C3.36397 9.00086 3.25143 8.95492 3.13421 8.95494Z" fill="white"/>
</svg>
