<svg width="29" height="29" viewBox="0 0 29 29" fill="none" xmlns="http://www.w3.org/2000/svg">
<g clip-path="url(#clip0_2168_505)">
<path d="M26.4256 13.1997C26.4256 13.0692 26.4772 12.9443 26.5659 12.8484C27.7268 11.5937 28.4256 9.97784 28.4256 8.21448C28.4256 4.22208 24.8438 0.985596 20.4256 0.985596C16.0073 0.985596 12.4256 4.22208 12.4256 8.21448C12.4256 12.2069 16.0073 15.4434 20.4256 15.4434C20.6291 15.4434 20.8309 15.4365 21.0306 15.423C21.13 15.4163 21.2295 15.4373 21.3165 15.4858L25.682 17.9203C26.0153 18.1061 26.4256 17.8652 26.4256 17.4836V13.1997Z" fill="white"/>
<path d="M16.4256 27.4831C16.4267 27.7585 16.2006 27.9854 15.9253 27.9856C15.6531 27.9856 15.4281 27.7632 15.4256 27.4919C15.4233 27.2144 15.644 26.9888 15.921 26.9856C16.1961 26.9825 16.4244 27.2078 16.4256 27.4831Z" fill="#FFFDF8"/>
<path d="M27.4256 27.4782C27.4289 28.3042 26.7506 28.9849 25.9249 28.9856C25.108 28.9856 24.4331 28.3184 24.4256 27.5046C24.4188 26.6719 25.0809 25.9952 25.912 25.9857C26.737 25.9762 27.4222 26.6522 27.4256 27.4782Z" fill="#FFFDF8"/>
<path d="M19.4234 23.0299C19.4251 20.8172 19.4265 18.6049 19.4247 16.3925C15.6267 16.0047 12.4542 13.4365 11.6326 9.98634C11.0688 9.98652 10.5051 9.98668 9.94147 9.98668L9.38504 9.98671C8.85606 9.98676 8.32709 9.9868 7.79811 9.98648C6.16504 9.98547 4.53198 9.98446 2.89892 9.98872C1.46591 9.99212 0.428239 11.0317 0.427559 12.4537L0.427233 13.0068C0.425265 16.3256 0.423297 19.6444 0.432322 22.9632C0.433002 23.2734 0.481994 23.602 0.592225 23.8898C1.01002 24.9798 1.87281 25.422 2.99282 25.4336C3.66529 25.4403 4.33776 25.4389 5.01023 25.4375C5.29038 25.4369 5.57052 25.4363 5.85067 25.4363C6.35626 25.4363 6.35627 25.437 6.36155 25.9484L6.36168 25.9608C6.36364 26.162 6.36466 26.3633 6.36568 26.5645C6.3689 27.2018 6.37213 27.8393 6.40523 28.4748C6.42904 28.9224 6.89514 29.1191 7.28912 28.8884C7.39827 28.8243 7.50031 28.7472 7.60133 28.6709L7.62321 28.6544C7.93259 28.4206 8.24221 28.1872 8.55178 27.9539C9.53587 27.2121 10.5196 26.4707 11.4942 25.7166C11.7651 25.507 12.0352 25.4308 12.3672 25.4315C12.6604 25.4324 12.9536 25.4338 13.2467 25.4351C14.5528 25.4413 15.8589 25.4474 17.1637 25.4091C18.4667 25.3703 19.4227 24.3253 19.4234 23.0299Z" fill="white"/>
<path d="M10.4952 2.86643C10.4994 3.90714 9.64515 4.76485 8.60529 4.7657C7.57656 4.7657 6.72654 3.9251 6.71714 2.89978C6.70859 1.85052 7.54235 0.997937 8.58905 0.985965C9.62805 0.973993 10.4909 1.82572 10.4952 2.86643Z" fill="white"/>
<path d="M3.42556 6.98065C3.42782 7.53131 2.97559 7.98514 2.42513 7.9856C1.88055 7.9856 1.43058 7.54081 1.4256 6.9983C1.42108 6.44311 1.86244 5.992 2.41653 5.98566C2.96654 5.97933 3.4233 6.42999 3.42556 6.98065Z" fill="white"/>
<path d="M23.4256 23.9807C23.4278 24.5313 22.9756 24.9851 22.4251 24.9856C21.8805 24.9856 21.4306 24.5408 21.4256 23.9983C21.4211 23.4431 21.8624 22.992 22.4165 22.9857C22.9665 22.9793 23.4233 23.43 23.4256 23.9807Z" fill="#FFFDF8"/>
<path d="M28.4256 19.4831C28.4267 19.7585 28.2006 19.9854 27.9253 19.9856C27.6531 19.9856 27.4281 19.7632 27.4256 19.4919C27.4233 19.2144 27.644 18.9888 27.921 18.9856C28.1961 18.9825 28.4244 19.2078 28.4256 19.4831Z" fill="#FFFDF8"/>
</g>
<defs>
<clipPath id="clip0_2168_505">
<rect width="27.998" height="28" fill="white" transform="translate(0.425568 0.985596)"/>
</clipPath>
</defs>
</svg>
