<svg width="47" height="29" viewBox="0 0 47 29" fill="none" xmlns="http://www.w3.org/2000/svg">
<path d="M24.2504 0.201172H22.1614V2.24331H24.2504V0.201172Z" fill="white"/>
<path d="M19.4355 25.9856C19.632 26.8422 20.1134 27.6068 20.8008 28.1544C21.4883 28.7019 22.3411 29.0001 23.22 29.0001C24.0989 29.0001 24.9517 28.7019 25.6392 28.1544C26.3266 27.6068 26.808 26.8422 27.0045 25.9856H19.4355Z" fill="white"/>
<path d="M39.8569 16.735C39.7333 16.7351 39.6109 16.7107 39.4967 16.6633C39.3826 16.6159 39.279 16.5463 39.1918 16.4587C39.1047 16.3717 39.0356 16.2683 38.9885 16.1546C38.9413 16.0409 38.9171 15.919 38.9171 15.7959C38.9171 15.6728 38.9413 15.5509 38.9885 15.4372C39.0356 15.3234 39.1047 15.2201 39.1918 15.1331C39.8476 14.496 40.3235 13.6969 40.5712 12.8168C40.819 11.9366 40.8297 11.0066 40.6025 10.121C40.3753 9.23531 39.9181 8.42541 39.2772 7.77325C38.6363 7.12108 37.8345 6.64982 36.9529 6.40716C36.7238 6.33217 36.5323 6.1717 36.4185 5.95915C36.3046 5.74659 36.2771 5.49833 36.3417 5.26601C36.4063 5.03369 36.5579 4.83522 36.7651 4.71189C36.9723 4.58856 37.2191 4.54987 37.4541 4.60388C38.6534 4.93264 39.7445 5.57238 40.6171 6.45835C41.4896 7.34432 42.1126 8.44508 42.4231 9.64922C42.7335 10.8534 42.7203 12.1181 42.3848 13.3155C42.0493 14.5129 41.4035 15.6005 40.5126 16.468C40.3374 16.6394 40.102 16.7352 39.8569 16.735Z" fill="white"/>
<path d="M42.1191 20.721C41.9335 20.7211 41.752 20.6661 41.5976 20.5629C41.4433 20.4597 41.3231 20.3129 41.2524 20.1413C41.1816 19.9696 41.1634 19.7808 41.2002 19.5988C41.2369 19.4168 41.3269 19.2499 41.4587 19.1191C42.7476 17.8515 43.6802 16.2672 44.1631 14.5252C44.646 12.7831 44.6621 10.9447 44.2099 9.19452C43.7576 7.44429 42.8529 5.84384 41.5865 4.55384C40.3201 3.26384 38.7366 2.32969 36.995 1.84517C36.7618 1.77305 36.5659 1.61269 36.4491 1.39826C36.3323 1.18383 36.3038 0.932284 36.3698 0.697186C36.4357 0.462088 36.5909 0.262023 36.8021 0.139623C37.0134 0.017224 37.2641 -0.0178386 37.5009 0.0418959C39.5594 0.61447 41.4311 1.71859 42.9279 3.24336C44.4248 4.76814 45.4941 6.6599 46.0285 8.72868C46.5629 10.7975 46.5435 12.9704 45.9724 15.0294C45.4014 17.0883 44.2986 18.9608 42.7749 20.4587C42.5989 20.6283 42.3636 20.7225 42.1191 20.721Z" fill="white"/>
<path d="M6.55486 16.7348C6.30977 16.7351 6.07436 16.6392 5.89912 16.4679C5.01305 15.5998 4.37138 14.5136 4.03874 13.3186C3.7061 12.1236 3.69423 10.8621 4.00434 9.66106C4.31445 8.46004 4.93559 7.36194 5.80518 6.47738C6.67477 5.59282 7.7621 4.95304 8.95766 4.62248C9.0803 4.56807 9.2132 4.54064 9.34736 4.54204C9.48152 4.54345 9.61381 4.57366 9.73529 4.63062C9.85676 4.68759 9.96458 4.76998 10.0515 4.87223C10.1383 4.97448 10.2022 5.09419 10.2388 5.22328C10.2754 5.35236 10.2838 5.48779 10.2635 5.62042C10.2432 5.75304 10.1947 5.87977 10.1212 5.992C10.0477 6.10424 9.95092 6.19938 9.83745 6.27098C9.72399 6.34258 9.59646 6.38897 9.46351 6.40701C8.58455 6.64972 7.78504 7.11973 7.14551 7.76972C6.50598 8.41971 6.049 9.22673 5.82059 10.1095C5.59218 10.9923 5.60039 11.9197 5.84441 12.7983C6.08843 13.6769 6.55964 14.4757 7.21059 15.1142C7.34214 15.2447 7.43204 15.4113 7.46893 15.5928C7.50583 15.7744 7.48806 15.9628 7.41787 16.1342C7.34768 16.3057 7.22823 16.4525 7.07462 16.5561C6.921 16.6596 6.74012 16.7153 6.55486 16.7161V16.7348Z" fill="white"/>
<path d="M4.29731 20.7209C4.0506 20.7223 3.81328 20.6264 3.63689 20.4539C2.11438 18.9559 1.01265 17.0837 0.44226 15.0254C-0.128129 12.9671 -0.147118 10.7949 0.387204 8.72689C0.921526 6.65888 1.99036 4.76778 3.48645 3.24336C4.98254 1.71894 6.85326 0.614813 8.91088 0.041793C9.03039 0.00484511 9.1561 -0.00779153 9.28057 0.00462888C9.40505 0.0170493 9.52578 0.0542712 9.63563 0.114106C9.74549 0.173941 9.84225 0.255179 9.9202 0.353014C9.99816 0.45085 10.0557 0.563302 10.0895 0.683747C10.1233 0.804192 10.1326 0.930182 10.1169 1.05429C10.1012 1.17839 10.0608 1.2981 9.99813 1.40635C9.93542 1.51459 9.85167 1.60917 9.75182 1.68452C9.65196 1.75987 9.53802 1.81447 9.41673 1.84507C7.67516 2.32959 6.09169 3.26374 4.82531 4.55374C3.55892 5.84374 2.65418 7.44419 2.20191 9.19441C1.74964 10.9446 1.76577 12.783 2.24866 14.5251C2.73156 16.2671 3.66423 17.8514 4.95304 19.119C5.08459 19.2495 5.17449 19.416 5.21138 19.5976C5.24828 19.7792 5.23051 19.9676 5.16032 20.139C5.09013 20.3105 4.97068 20.4573 4.81706 20.5608C4.66345 20.6644 4.48257 20.7201 4.29731 20.7209Z" fill="white"/>
<path fill-rule="evenodd" clip-rule="evenodd" d="M32.5736 10.2291V17.7232C32.5736 17.7232 32.3769 23.7653 36.6204 23.7888V25.1424H9.79147V23.7653C14.035 23.7653 13.8383 17.7232 13.8383 17.7232V10.2291H13.8664C14.0416 7.8713 15.1019 5.66698 16.8345 4.05833C18.5672 2.44967 20.844 1.55566 23.2083 1.55566C25.5726 1.55566 27.8494 2.44967 29.5821 4.05833C31.3147 5.66698 32.375 7.8713 32.5502 10.2291H32.5736ZM17.2996 15.4375H16.0116C15.9887 15.7279 16.0294 16.0198 16.1308 16.2928C16.2322 16.5659 16.3918 16.8136 16.5987 17.0187C16.8056 17.2237 17.0546 17.3813 17.3285 17.4803C17.6025 17.5793 17.8947 17.6175 18.1849 17.5921C19.5713 17.5921 20.3582 16.7021 20.3582 15.5733C20.3582 14.2823 19.3999 13.7188 18.5817 13.2376C17.9721 12.8791 17.4402 12.5663 17.4402 12.0324C17.4373 11.9369 17.4553 11.8419 17.4927 11.7541C17.5301 11.6662 17.5862 11.5875 17.657 11.5234C17.7278 11.4592 17.8116 11.4113 17.9028 11.3827C17.9939 11.3541 18.0902 11.3457 18.1849 11.3579C18.6673 11.3579 18.9671 11.6342 18.9671 12.2057H20.2505C20.2731 11.9281 20.2351 11.6488 20.1391 11.3874C20.0431 11.1259 19.8913 10.8885 19.6944 10.6915C19.4974 10.4946 19.26 10.3428 18.9985 10.2468C18.737 10.1507 18.4578 10.1127 18.1802 10.1354C16.9109 10.1354 16.1521 10.9457 16.1521 12.0089C16.1521 13.2253 17.0692 13.7906 17.8701 14.2844C18.491 14.6671 19.042 15.0068 19.042 15.5733C19.049 15.6844 19.0315 15.7957 18.9906 15.8992C18.9498 16.0027 18.8867 16.096 18.8058 16.1725C18.7249 16.2489 18.6282 16.3066 18.5225 16.3415C18.4168 16.3763 18.3048 16.3875 18.1943 16.3743C18.0705 16.3843 17.9461 16.3667 17.8301 16.3225C17.7141 16.2784 17.6094 16.2089 17.5237 16.1191C17.438 16.0293 17.3733 15.9216 17.3346 15.8036C17.2958 15.6857 17.2839 15.5606 17.2996 15.4375ZM21.0889 15.1612V12.5992C21.0889 11.0816 21.9273 10.1729 23.3512 10.1729C24.7751 10.1729 25.6041 11.0816 25.6041 12.5992V15.1612C25.6041 16.6741 24.7657 17.5874 23.3512 17.5874C21.9367 17.5874 21.0889 16.6741 21.0889 15.1612ZM24.3067 15.1612V12.5992C24.3067 11.8216 23.9882 11.3907 23.3699 11.3907C22.7516 11.3907 22.4331 11.8216 22.4331 12.5992V15.1612C22.4331 15.9387 22.761 16.3696 23.3699 16.3696C23.9788 16.3696 24.3067 15.9387 24.3067 15.1612ZM27.59 15.4374H26.3019C26.2799 15.7269 26.321 16.0179 26.4224 16.29C26.5239 16.5621 26.6832 16.809 26.8895 17.0134C27.0957 17.2179 27.3439 17.3751 27.6169 17.4742C27.8899 17.5733 28.1812 17.6118 28.4706 17.5872C29.8523 17.5872 30.6438 16.6973 30.6438 15.5685C30.6438 14.2775 29.6856 13.714 28.8674 13.2328C28.2577 12.8743 27.7258 12.5615 27.7258 12.0275C27.7231 11.9302 27.742 11.8334 27.7811 11.7442C27.8202 11.655 27.8785 11.5755 27.952 11.5115C28.0254 11.4475 28.112 11.4005 28.2057 11.3739C28.2995 11.3474 28.3979 11.3418 28.494 11.3578C28.9764 11.3578 29.2715 11.6341 29.2715 12.2055H30.5408C30.5627 11.9281 30.5241 11.6492 30.4278 11.3881C30.3315 11.1271 30.1797 10.8899 29.9829 10.6932C29.7861 10.4964 29.549 10.3446 29.2879 10.2483C29.0268 10.152 28.748 10.1134 28.4706 10.1353C27.2012 10.1353 26.4425 10.9456 26.4425 12.0088C26.4425 13.2252 27.3595 13.7905 28.1605 14.2842C28.7813 14.667 29.3324 15.0067 29.3324 15.5732C29.3395 15.6847 29.3218 15.7964 29.2808 15.9003C29.2397 16.0043 29.1761 16.0978 29.0947 16.1743C29.0133 16.2508 28.9159 16.3084 28.8096 16.343C28.7034 16.3775 28.5908 16.3882 28.4799 16.3741C27.9366 16.3741 27.59 16.0791 27.59 15.4374Z" fill="white"/>
</svg>
