<svg width="26" height="25" viewBox="0 0 26 25" fill="none" xmlns="http://www.w3.org/2000/svg">
<path d="M14.2692 15.1016H12.5479C12.3813 15.1016 12.2461 15.2367 12.2461 15.4034V17.8203C12.2461 17.987 12.3813 18.1221 12.5479 18.1221H14.2692C14.4359 18.1221 14.571 17.987 14.571 17.8203V15.4034C14.571 15.2367 14.4359 15.1016 14.2692 15.1016Z" fill="white"/>
<path d="M25.9574 16.8947V23.4549C25.9574 23.7061 25.8577 23.947 25.6804 24.1249C25.503 24.3028 25.2623 24.403 25.0111 24.4037H1.80611C1.5549 24.403 1.31421 24.3028 1.13681 24.1249C0.95942 23.947 0.859801 23.7061 0.859802 23.4549V15.2092C1.71729 15.6947 2.64343 16.0474 3.60665 16.2553C5.52739 16.7335 8.14891 17.0558 11.0441 17.1683V17.8205C11.0441 18.2196 11.2025 18.6024 11.4844 18.8848C11.7664 19.1672 12.1489 19.3262 12.548 19.3269H14.2692C14.6687 19.3269 15.0519 19.1682 15.3344 18.8857C15.6169 18.6032 15.7756 18.22 15.7756 17.8205V17.1683C18.6555 17.0558 23.6709 16.6568 25.9574 15.199V16.8947Z" fill="white"/>
<path d="M25.9574 8.27015V13.4237C25.9574 14.3291 22.7936 15.6871 15.7756 15.9659V15.4033C15.7749 15.0042 15.6159 14.6217 15.3335 14.3397C15.0511 14.0578 14.6683 13.8994 14.2692 13.8994H12.548C12.1493 13.9001 11.7672 14.0587 11.4853 14.3406C11.2034 14.6225 11.0448 15.0046 11.0441 15.4033V15.9659C4.02609 15.6897 0.859802 14.3316 0.859802 13.4237V8.27015C0.859801 8.01894 0.95942 7.77798 1.13681 7.60011C1.31421 7.42223 1.5549 7.32197 1.80611 7.32129H25.0111C25.2623 7.32197 25.503 7.42223 25.6804 7.60011C25.8577 7.77798 25.9574 8.01894 25.9574 8.27015Z" fill="white"/>
<path d="M19.0237 3.49527V3.67942H17.8216V3.49527C17.8216 3.08829 17.66 2.69797 17.3722 2.41018C17.0844 2.1224 16.6941 1.96072 16.2871 1.96072H10.241C9.83398 1.96072 9.44366 2.1224 9.15587 2.41018C8.86809 2.69797 8.70641 3.08829 8.70641 3.49527V3.67942H7.50435V3.49527C7.50401 3.13568 7.57455 2.77955 7.71193 2.44723C7.8493 2.11492 8.05083 1.81293 8.30498 1.55854C8.55913 1.30415 8.86093 1.10235 9.19312 0.96466C9.5253 0.826973 9.88137 0.756103 10.241 0.756104H16.2896C16.649 0.756439 17.0048 0.827556 17.3367 0.965394C17.6686 1.10323 17.9701 1.30509 18.224 1.55945C18.4779 1.8138 18.6792 2.11567 18.8164 2.44782C18.9536 2.77997 19.024 3.1359 19.0237 3.49527Z" fill="white"/>
<path d="M25.0111 4.88428H1.80611C1.55513 4.88428 1.31444 4.98398 1.13697 5.16144C0.959502 5.33891 0.859802 5.57961 0.859802 5.83058V6.3421C1.15415 6.19705 1.47796 6.12179 1.80611 6.12215H25.0111C25.3392 6.12151 25.6631 6.19679 25.9574 6.3421V5.83058C25.9574 5.57961 25.8577 5.33891 25.6802 5.16144C25.5027 4.98398 25.262 4.88428 25.0111 4.88428Z" fill="white"/>
</svg>
