<svg width="48" height="39" viewBox="0 0 48 39" fill="none" xmlns="http://www.w3.org/2000/svg">
<path d="M41.4497 33.9043C41.0873 33.901 40.7915 34.1946 40.7915 34.5572C40.7915 35.4338 40.7903 36.2617 40.7926 37.0908C40.7937 37.6296 40.7847 38.156 40.2088 38.4485C39.6059 38.7546 39.0922 38.5761 38.5931 38.1966C36.8837 36.8988 35.1742 35.6021 33.449 34.3268C33.0888 34.0602 32.6529 33.9156 32.2058 33.9123C29.6428 33.8931 27.0797 33.9179 24.5167 33.8953C22.4945 33.8772 20.9307 33.0346 19.9992 31.1833C19.84 30.8681 19.6853 30.5202 19.6548 30.1769C19.5769 29.2969 19.5374 28.4148 19.4922 27.4976C19.4742 27.1248 19.77 26.8131 20.1426 26.8131C20.1573 26.8131 20.1708 26.8131 20.1855 26.8131C22.2732 26.8131 24.362 26.8232 26.4497 26.8108C29.6315 26.7916 32.1178 25.1481 33.2356 22.1718C33.5833 21.2456 33.6951 20.1906 33.7177 19.1898C33.7809 16.4427 33.7391 13.6946 33.7391 10.9464V10.8549C33.7391 10.4946 34.0304 10.2031 34.3906 10.2031C37.193 10.2031 39.9966 10.2009 42.799 10.2043C45.8701 10.2076 47.8991 12.2205 47.9036 15.2838C47.9104 19.7828 47.9104 24.2806 47.9036 28.7796C47.8991 31.3075 46.6571 33.0357 44.3413 33.7033C43.8615 33.8411 43.3432 33.8705 42.8408 33.8942C42.3869 33.9145 41.9318 33.9089 41.4497 33.9043Z" fill="#4AC3FB"/>
<path d="M26.4237 0.716763C29.2295 0.726929 31.2686 2.74429 31.2935 5.56364C31.3341 10.2128 31.3352 14.8632 31.2946 19.5124C31.2686 22.4243 29.2091 24.3977 26.2972 24.4056C22.9303 24.4146 19.5622 24.4157 16.1952 24.3977C15.7345 24.3954 15.3755 24.5185 15.0142 24.7964C13.3285 26.0897 11.6258 27.3616 9.92649 28.6368C9.73229 28.7825 9.52792 28.9283 9.30662 29.0231C8.54674 29.3507 7.71347 28.8605 7.67847 28.037C7.63669 27.0781 7.65927 26.118 7.65363 25.1578C7.6525 24.9353 7.65363 24.7128 7.65363 24.4609C6.5697 24.4078 5.57271 24.4044 4.58588 24.3005C2.57045 24.0882 0.841808 22.3227 0.599053 20.2872C0.560664 19.971 0.541469 19.6502 0.541469 19.3305C0.538082 14.8315 0.547115 10.3326 0.534695 5.8336C0.530178 4.12799 1.09811 2.71041 2.47899 1.66219C3.35065 1.00141 4.35893 0.719022 5.42818 0.716763C12.4274 0.703209 19.4256 0.694172 26.4237 0.716763Z" fill="#4AC3FB"/>
</svg>
