<svg width="26" height="31" viewBox="0 0 26 31" fill="none" xmlns="http://www.w3.org/2000/svg">
<g clip-path="url(#clip0_2132_1105)">
<path d="M11.0107 30.6464C10.8663 30.5679 10.7114 30.5054 10.5806 30.4077C10.1783 30.1083 10.0221 29.6066 10.17 29.1411C10.3279 28.6453 10.7226 28.3292 11.2416 28.3262C12.6931 28.3179 14.1453 28.3179 15.5968 28.325C16.163 28.328 16.6342 28.7328 16.7261 29.2637C16.8263 29.8393 16.5429 30.3446 15.9945 30.5708C15.942 30.5923 15.892 30.6208 15.8413 30.6464C14.2313 30.6464 12.6213 30.6464 11.0107 30.6464ZM13.4419 29.6863C14.1176 29.6863 14.7939 29.6875 15.4696 29.6851C15.6151 29.6845 15.8077 29.6964 15.7724 29.4798C15.7594 29.3988 15.5856 29.2869 15.4849 29.2863C14.1235 29.2732 12.7621 29.2732 11.4006 29.2869C11.2917 29.2881 11.1839 29.4167 11.0755 29.4863C11.1886 29.553 11.3005 29.6744 11.4148 29.6774C12.0899 29.6958 12.7662 29.6869 13.4419 29.6863Z" fill="white"/>
<path d="M13.5438 0.170654C13.8036 0.309937 13.9031 0.523624 13.8996 0.824213C13.8872 1.79443 13.8949 2.76465 13.8949 3.73487C13.8949 3.79439 13.8972 3.85392 13.8908 3.91284C13.8601 4.19915 13.6439 4.4045 13.3888 4.392C13.1408 4.3801 12.9617 4.1807 12.9553 3.88665C12.947 3.49083 12.9523 3.09441 12.9517 2.69858C12.9517 2.09443 12.9629 1.49027 12.947 0.886712C12.9394 0.590289 12.9983 0.345056 13.2492 0.170654C13.3476 0.170654 13.446 0.170654 13.5438 0.170654Z" fill="white"/>
<path d="M13.4283 24.834C12.319 24.834 11.2097 24.8352 10.1011 24.8334C9.54671 24.8329 9.41887 24.6959 9.41298 24.1269C9.40532 23.3305 9.30989 22.5478 9.06894 21.7841C8.88927 21.2157 8.6118 20.7139 8.17881 20.3038C7.06246 19.2472 6.29191 17.9788 5.92549 16.4753C5.36643 14.1837 5.73698 12.0444 7.06187 10.1028C8.19354 8.44507 9.74759 7.36116 11.6981 6.92605C14.1953 6.36892 16.4516 6.93379 18.4162 8.58495C19.747 9.70397 20.613 11.1379 20.9747 12.8533C21.4707 15.2051 20.9906 17.3544 19.5697 19.283C19.3653 19.5603 19.1408 19.83 18.8893 20.0627C18.0628 20.8282 17.6875 21.8061 17.5479 22.8954C17.4925 23.3269 17.476 23.7638 17.4578 24.1989C17.4372 24.684 17.3017 24.8329 16.8151 24.8346C15.6863 24.8382 14.5576 24.8358 13.4289 24.8358C13.4283 24.8352 13.4283 24.8346 13.4283 24.834ZM10.4622 23.8674C10.4333 23.8567 10.4516 23.8692 10.4698 23.8692C12.4133 23.8739 14.3561 23.8793 16.2996 23.8733C16.3662 23.8733 16.4799 23.7608 16.4916 23.6882C16.5435 23.3567 16.5535 23.018 16.603 22.6859C16.7927 21.4192 17.2863 20.324 18.2036 19.3937C19.9379 17.6348 20.5323 15.4926 20.0233 13.0658C19.6622 11.3438 18.7238 9.98135 17.3081 8.9653C15.9414 7.98436 14.3991 7.59271 12.742 7.7552C11.1915 7.90758 9.83242 8.54269 8.71489 9.64981C7.15377 11.1968 6.47277 13.0968 6.68308 15.283C6.84508 16.9687 7.57674 18.405 8.80679 19.5722C9.36173 20.099 9.76467 20.7377 9.95967 21.4758C10.1629 22.2454 10.2907 23.0353 10.4622 23.8674Z" fill="white"/>
<path d="M13.4224 27.7923C12.372 27.7923 11.3217 27.8 10.2719 27.7887C9.80119 27.7833 9.40531 27.4685 9.25038 27.0238C9.09839 26.5869 9.20384 26.0536 9.57615 25.7852C9.80237 25.6221 10.1075 25.4899 10.3791 25.487C12.4103 25.4626 14.4421 25.4685 16.474 25.4762C17.1762 25.4786 17.6704 25.9709 17.6728 26.6328C17.6746 27.3012 17.1909 27.7857 16.4846 27.7929C15.4637 27.803 14.4433 27.7952 13.4224 27.7952C13.4224 27.7947 13.4224 27.7935 13.4224 27.7923ZM13.4395 26.8393C14.3019 26.8393 15.165 26.8393 16.0274 26.8393C16.1747 26.8393 16.3255 26.8584 16.4669 26.8304C16.5523 26.8137 16.6242 26.7244 16.7025 26.6673C16.6289 26.5905 16.5623 26.503 16.4781 26.4417C16.4386 26.4131 16.3638 26.4316 16.3049 26.4316C14.3838 26.4316 12.4622 26.4316 10.5411 26.434C10.4545 26.434 10.3597 26.4346 10.2837 26.4691C10.2236 26.4959 10.1423 26.5834 10.1499 26.6298C10.1623 26.703 10.2301 26.7869 10.2972 26.8244C10.3585 26.8584 10.4504 26.8387 10.5281 26.8387C11.4984 26.8393 12.4686 26.8387 13.4395 26.8393Z" fill="white"/>
<path d="M4.64009 9.33835C4.6342 9.81334 4.23302 10.0336 3.88309 9.84846C3.27631 9.52763 2.6772 9.19133 2.07454 8.86217C1.77292 8.69729 1.46777 8.53956 1.17086 8.36754C0.882788 8.20087 0.786175 7.91576 0.916366 7.66874C1.05009 7.41577 1.3199 7.35267 1.63272 7.52172C2.53051 8.00623 3.4283 8.49075 4.31549 8.99491C4.46925 9.08121 4.56998 9.26157 4.64009 9.33835Z" fill="white"/>
<path d="M22.6089 9.97285C22.5094 9.89369 22.3279 9.81928 22.2796 9.69309C22.2254 9.55203 22.2696 9.35739 22.3138 9.19846C22.3356 9.12049 22.4469 9.0568 22.5306 9.01037C23.4242 8.51871 24.3203 8.03122 25.2157 7.54314C25.4095 7.43719 25.6281 7.38659 25.786 7.55742C25.8914 7.67111 25.9686 7.86872 25.9556 8.01991C25.945 8.14729 25.8119 8.30741 25.6905 8.37586C24.7845 8.88537 23.8684 9.37703 22.953 9.86988C22.8693 9.91511 22.768 9.92702 22.6089 9.97285Z" fill="white"/>
<path d="M6.02803 2.29785C6.18591 2.42166 6.34733 2.49487 6.42921 2.62106C7.00064 3.49783 7.5597 4.38234 8.11287 5.27101C8.27958 5.53886 8.21066 5.83647 7.98091 5.97754C7.76235 6.11206 7.49019 6.03885 7.32406 5.77874C6.76559 4.90494 6.20417 4.03353 5.67104 3.14426C5.58562 3.002 5.59151 2.76094 5.64394 2.59308C5.67987 2.4788 5.86897 2.41333 6.02803 2.29785Z" fill="white"/>
<path d="M19.38 6.1384C18.9688 6.13721 18.7626 5.8515 18.8492 5.55329C18.8787 5.45151 18.9394 5.35627 18.9983 5.2658C19.5273 4.4551 20.0587 3.645 20.5912 2.83668C20.8021 2.51645 21.0625 2.42538 21.3023 2.57954C21.5503 2.73847 21.5756 3.03667 21.363 3.36226C20.8333 4.17296 20.3085 4.98783 19.7641 5.78841C19.6522 5.95269 19.4637 6.064 19.38 6.1384Z" fill="white"/>
<path d="M10.4622 23.8671C10.2907 23.0349 10.1629 22.2451 9.95966 21.4754C9.76466 20.7374 9.36172 20.0987 8.80678 19.5719C7.57673 18.4047 6.84507 16.9684 6.68306 15.2827C6.47275 13.0964 7.15376 11.1965 8.71488 9.64947C9.83241 8.54235 11.1915 7.90665 12.742 7.75487C14.3991 7.59237 15.9408 7.98403 17.3081 8.96496C18.7237 9.98101 19.6628 11.3435 20.0233 13.0655C20.5323 15.4922 19.9379 17.6338 18.2036 19.3933C17.2863 20.3237 16.7927 21.4189 16.603 22.6855C16.5535 23.0177 16.5435 23.3564 16.4916 23.6879C16.4804 23.7611 16.3667 23.873 16.2996 23.873C14.3567 23.8796 12.4133 23.8736 10.4698 23.8688C10.4516 23.8694 10.4333 23.8569 10.4622 23.8671ZM19.4719 14.4869C19.3264 11.8619 17.5237 9.70423 15.2274 9.02151C14.653 8.85068 14.038 8.80425 13.4377 8.73997C13.1396 8.70842 12.9488 8.92687 12.9405 9.20543C12.9323 9.48876 13.1002 9.6715 13.4053 9.71019C13.522 9.72507 13.6392 9.74054 13.7564 9.74649C16.0869 9.8578 18.1335 11.7417 18.4315 14.122C18.4657 14.3958 18.4781 14.6732 18.5223 14.9452C18.5647 15.2071 18.7508 15.3464 18.9994 15.3416C19.2475 15.3369 19.4271 15.1898 19.4678 14.9297C19.4902 14.7851 19.4719 14.6345 19.4719 14.4869Z" fill="white"/>
</g>
<defs>
<clipPath id="clip0_2132_1105">
<rect width="25.0976" height="30.4756" fill="white" transform="translate(0.859802 0.170654)"/>
</clipPath>
</defs>
</svg>
