<svg width="30" height="30" viewBox="0 0 30 30" fill="none" xmlns="http://www.w3.org/2000/svg">
<path d="M10.0563 16.3324H3.38027C1.52112 16.3324 0 17.8797 0 19.7708V26.5616C0 28.4527 1.52112 30 3.38027 30H10.0563C11.9155 30 13.4366 28.4527 13.4366 26.5616V19.7708C13.4366 17.8797 11.9155 16.3324 10.0563 16.3324ZM12.0845 22.3926C12.0845 22.8438 11.7253 23.2092 11.2817 23.2092C10.838 23.2092 10.4788 22.8438 10.4788 22.3926V21.4693C10.4788 20.3433 9.578 19.4269 8.47096 19.4269H7.69181C7.24815 19.4269 6.88899 19.0616 6.88899 18.6103C6.88899 18.159 7.24815 17.7937 7.69181 17.7937H8.47096C10.4636 17.7937 12.0845 19.4424 12.0845 21.4693V22.3926Z" fill="white"/>
<path d="M10.0563 0H3.38027C1.52112 0 0 1.54727 0 3.43839V10.2292C0 12.1203 1.52112 13.6676 3.38027 13.6676H10.0563C11.9155 13.6676 13.4366 12.1203 13.4366 10.2292V3.43839C13.4366 1.54727 11.9155 0 10.0563 0ZM12.0845 6.06015C12.0845 6.51144 11.7253 6.87677 11.2817 6.87677C10.838 6.87677 10.4788 6.51144 10.4788 6.06015V5.13695C10.4788 4.01088 9.578 3.09455 8.47096 3.09455H7.69181C7.24815 3.09455 6.88899 2.72922 6.88899 2.27793C6.88899 1.82664 7.24815 1.46131 7.69181 1.46131H8.47096C10.4636 1.46131 12.0845 3.11002 12.0845 5.13695V6.06015Z" fill="white"/>
<path d="M26.6196 0H19.9435C18.0844 0 16.5633 1.54727 16.5633 3.43839V10.2292C16.5633 12.1203 18.0844 13.6676 19.9435 13.6676H26.6196C28.4787 13.6676 29.9998 12.1203 29.9998 10.2292V3.43839C29.9998 1.54727 28.4787 0 26.6196 0ZM28.4787 6.06015C28.4787 6.51144 28.1196 6.87677 27.6759 6.87677C27.2322 6.87677 26.8731 6.51144 26.8731 6.06015V5.13695C26.8731 4.01088 25.9722 3.09455 24.8652 3.09455H24.0861C23.6424 3.09455 23.2832 2.72922 23.2832 2.27793C23.2832 1.82664 23.6424 1.46131 24.0861 1.46131H24.8652C26.8579 1.46131 28.4787 3.11002 28.4787 5.13695V6.06015Z" fill="white"/>
<path d="M23.2816 16.3324C19.5861 16.3324 16.5633 19.4072 16.5633 23.1662C16.5633 26.9243 19.5861 30 23.2816 30C26.9762 30 29.9998 26.9252 29.9998 23.1662C29.9998 19.4072 26.977 16.3324 23.2816 16.3324ZM27.8052 21.8673C27.2897 22.0298 26.7125 22.1029 26.197 21.9026C25.7373 21.7246 25.188 21.0481 25.3435 20.5014C25.597 19.6118 25.052 19.4201 24.3092 19.3427C24.0244 19.3135 23.6711 19.2997 23.443 19.1003C23.2249 18.9095 23.1683 18.5536 23.2723 18.2871C23.301 18.2132 23.339 18.1547 23.3855 18.1075C23.688 17.7971 24.1824 17.8118 24.5787 17.8376C25.0554 17.8685 25.5413 17.8934 25.9993 18.0421C26.7404 18.2837 27.3125 18.8209 27.6413 19.5335C27.8179 19.9169 27.91 20.3321 28.0029 20.7421C28.0917 21.135 28.3317 21.7006 27.8052 21.8673Z" fill="white"/>
</svg>
