<svg width="30" height="30" viewBox="0 0 26 27" fill="none" xmlns="http://www.w3.org/2000/svg">
<path d="M4.32895 8.16565L7.92015 8.16565C8.50439 8.16565 8.98271 8.6027 8.98271 9.13653L8.98271 22.7105C8.98271 23.2443 8.50439 23.6814 7.92015 23.6814L4.32895 23.6814C3.74471 23.6814 3.26639 23.2443 3.26639 22.7105L3.26639 9.13653C3.26639 8.6027 3.74471 8.16565 4.32895 8.16565ZM4.19109 22.222L8.05801 22.222L8.05801 17.1387C8.05801 17.1387 7.46957 15.011 6.12455 16.1624C5.62017 16.4896 4.94766 15.3374 4.61141 13.4256C4.27515 11.5138 4.19109 12.4056 4.19109 12.7244L4.19109 22.222Z" fill="white"/>
<path d="M10.7509 11.4323L14.564 11.4323C15.0878 11.4323 15.5156 11.8171 15.5156 12.2882L15.5156 22.8256C15.5156 23.2966 15.0878 23.6815 14.564 23.6815L10.7509 23.6815C10.2272 23.6815 9.79932 23.2966 9.79932 22.8256L9.79932 12.2882C9.79932 11.8171 10.2272 11.4323 10.7509 11.4323ZM10.724 22.2449L14.5909 22.2449L14.5909 18.5497C14.5909 18.5497 14.0025 17.0026 12.6575 17.8397C12.1531 18.0771 11.4806 17.2401 11.1443 15.8503C10.8081 14.4598 10.724 15.1085 10.724 15.3407L10.724 22.2449Z" fill="white"/>
<path d="M17.9189 15.5154L22.0952 15.5154C22.5188 15.5154 22.8652 15.8328 22.8652 16.2211L22.8652 22.9759C22.8652 23.3642 22.5188 23.6816 22.0952 23.6816L17.9189 23.6816C17.4952 23.6816 17.1489 23.3642 17.1489 22.9759L17.1489 16.2211C17.1489 15.8328 17.4952 15.5154 17.9189 15.5154ZM18.0736 22.2178L21.9405 22.2178L21.9405 19.7079C21.9405 19.7079 21.352 18.657 20.007 19.2256C19.5026 19.3866 18.8301 18.8181 18.4939 17.8743C18.1576 16.9298 18.0736 17.3705 18.0736 17.5284L18.0736 22.2178Z" fill="white"/>
<path d="M0.661372 26.948L0.971686 26.948C1.33576 26.948 1.63315 26.5717 1.63315 26.111L1.63315 2.46976C1.63315 2.0091 1.33576 1.63281 0.971688 1.63281L0.661374 1.63281C0.297299 1.63281 -8.63404e-05 2.0091 -8.63807e-05 2.46976L-8.84475e-05 26.111C-8.84877e-05 26.5717 0.297296 26.948 0.661372 26.948Z" fill="white"/>
<path d="M-0.000104962 25.9762L-0.000104989 26.2865C-0.000105021 26.6505 0.376177 26.9479 0.836843 26.9479L24.4781 26.9479C24.9387 26.9479 25.315 26.6505 25.315 26.2865L25.315 25.9762C25.315 25.6121 24.9388 25.3147 24.4781 25.3147L0.836843 25.3147C0.376177 25.3147 -0.00010493 25.6121 -0.000104962 25.9762Z" fill="white"/>
<path d="M18.0086 9.5105C18.0387 9.54457 18.0533 9.60962 18.0456 9.65608C17.9962 9.96041 18.0865 10.2113 18.3027 10.4274C19.3053 11.4302 20.3049 12.4361 21.3068 13.4397C21.6488 13.782 22.152 13.7967 22.4739 13.4761C22.8027 13.1501 22.7919 12.6429 22.4453 12.2952C21.4519 11.297 20.4547 10.3011 19.4636 9.30064C19.2374 9.0722 18.9796 8.96998 18.6608 9.02651C18.6222 9.03348 18.5674 9.02109 18.5396 8.99631C18.4084 8.87938 18.2841 8.75471 18.1529 8.62848C19.1062 7.48627 19.5377 6.18764 19.401 4.72174C19.2636 3.2481 18.6037 2.04162 17.4513 1.11856C15.422 -0.506863 12.441 -0.341146 10.6062 1.48871C8.72281 3.36735 8.52366 6.32858 10.1477 8.40314C10.9605 9.44158 12.0203 10.0959 13.3171 10.3228C14.9349 10.6062 16.3768 10.1873 17.6535 9.13493C17.7739 9.26115 17.8966 9.38118 18.0086 9.5105ZM9.96786 5.23748C9.96014 2.85781 11.8559 0.925737 14.2063 0.917994C16.5891 0.91025 18.5157 2.81909 18.5111 5.19876C18.5064 7.55674 16.6454 9.47023 14.2456 9.49114C11.9037 9.50043 9.9748 7.5823 9.96786 5.23748Z" fill="white"/>
<path d="M13.8589 9.20219C13.5378 9.12088 13.2159 9.04189 12.8964 8.95516C12.8663 8.94742 12.8477 8.89244 12.8269 8.85682C12.8207 8.84675 12.8261 8.82971 12.8261 8.81577C12.8261 7.85632 12.8261 6.89609 12.8261 5.93663C12.8261 5.71051 12.9272 5.54247 13.1279 5.44413C13.3178 5.3512 13.5069 5.37134 13.6775 5.49756C13.8072 5.59358 13.8867 5.72445 13.8867 5.88785C13.8882 6.96811 13.8867 8.04836 13.8859 9.1294C13.8867 9.13714 13.8805 9.14566 13.8589 9.20219Z" fill="white"/>
<path d="M16.3474 8.58507C16.3474 8.02674 16.3474 7.49861 16.3474 6.97049C16.3474 6.37809 16.3474 5.78491 16.3482 5.19251C16.349 4.84714 16.5682 4.61483 16.8877 4.6187C17.1965 4.6218 17.4111 4.85721 17.4111 5.19561C17.4118 5.96534 17.4118 6.7343 17.4103 7.50403C17.4103 7.55205 17.4064 7.61167 17.3794 7.64729C17.0992 8.01358 16.765 8.32178 16.3474 8.58507Z" fill="white"/>
<path d="M14.5838 9.16034C14.5838 8.58575 14.5845 8.02123 14.5838 7.45671C14.5838 7.27628 14.576 7.09585 14.5776 6.91465C14.5799 6.60567 14.8184 6.36484 15.1179 6.36329C15.4128 6.36174 15.6598 6.60567 15.6605 6.91232C15.6613 7.55583 15.6575 8.19857 15.6521 8.84207C15.6521 8.87924 15.6266 8.93268 15.5965 8.94894C15.4259 9.04496 14.813 9.17041 14.5838 9.16034Z" fill="white"/>
<path d="M12.1353 8.58823C11.7161 8.32494 11.3811 8.01751 11.101 7.65123C11.0732 7.61561 11.067 7.55676 11.0662 7.50797C11.0631 7.21139 11.0624 6.9148 11.0654 6.61821C11.0693 6.28833 11.2993 6.04982 11.6042 6.05214C11.9076 6.05446 12.1337 6.29839 12.1345 6.62905C12.136 7.27179 12.1353 7.91452 12.1353 8.58823Z" fill="white"/>
<path d="M11.6003 5.45289C11.2554 5.45289 10.9759 5.17241 10.9759 4.82642C10.9759 4.48043 11.2554 4.19995 11.6003 4.19995C11.9452 4.19995 12.2248 4.48043 12.2248 4.82642C12.2248 5.17241 11.9452 5.45289 11.6003 5.45289Z" fill="white"/>
<path d="M16.8755 4.31129C16.5306 4.31129 16.251 4.03081 16.251 3.68482C16.251 3.33883 16.5306 3.05835 16.8755 3.05835C17.2203 3.05835 17.4999 3.33883 17.4999 3.68482C17.4999 4.03081 17.2203 4.31129 16.8755 4.31129Z" fill="white"/>
<path d="M13.3495 4.19997C13.0047 4.19997 12.7251 3.91949 12.7251 3.57349C12.7251 3.2275 13.0047 2.94702 13.3495 2.94702C13.6944 2.94702 13.974 3.2275 13.974 3.57349C13.974 3.91949 13.6944 4.19997 13.3495 4.19997Z" fill="white"/>
<path d="M15.1264 6.01015C14.7815 6.01015 14.502 5.72967 14.502 5.38367C14.502 5.03768 14.7815 4.7572 15.1264 4.7572C15.4713 4.7572 15.7509 5.03768 15.7509 5.38367C15.7509 5.72967 15.4713 6.01015 15.1264 6.01015Z" fill="white"/>
<path d="M13.2714 3.4688L13.4006 3.65027L11.6521 4.90326L11.5229 4.72179L13.2714 3.4688Z" fill="white"/>
<path d="M13.4425 3.48163L15.1917 5.29224L15.0321 5.44746L13.2829 3.63686L13.4425 3.48163Z" fill="white"/>
<path d="M16.8692 3.58926L17.0201 3.75305L15.1879 5.4517L15.0371 5.28791L16.8692 3.58926Z" fill="white"/>
</svg>
