<svg width="37" height="34" viewBox="0 0 37 34" fill="none" xmlns="http://www.w3.org/2000/svg">
<path fill-rule="evenodd" clip-rule="evenodd" d="M34.2348 10.8684V33.2052C34.2356 33.3098 34.2156 33.4135 34.176 33.5103C34.1364 33.607 34.078 33.6949 34.0042 33.7689C33.9304 33.8428 33.8426 33.9013 33.746 33.941C33.6494 33.9807 33.546 34.0007 33.4416 34H26.9169C26.709 33.997 26.5107 33.9118 26.3652 33.7629C26.2198 33.6141 26.139 33.4136 26.1405 33.2052V14.1765L32.5813 9.07786L34.0617 10.824L34.2348 10.8684ZM37 0L35.5364 4.14156L34.0617 8.29991L32.5813 6.53135L20.4761 16.1017C20.2113 16.351 19.8742 16.5092 19.5136 16.5535C19.153 16.5977 18.7876 16.5258 18.4706 16.348L9.5495 11.4565L2.84609 17.1987C2.67595 17.3488 2.4777 17.4635 2.26289 17.5361C2.04807 17.6088 1.82098 17.6378 1.59484 17.6217C1.3687 17.6055 1.14801 17.5445 0.945647 17.4421C0.743282 17.3397 0.563269 17.198 0.416095 17.0252C0.267791 16.8516 0.155186 16.6503 0.0847227 16.433C0.0142599 16.2157 -0.0126647 15.9866 0.00550222 15.7588C0.0236692 15.531 0.0865565 15.3091 0.190572 15.1057C0.294587 14.9024 0.437677 14.7216 0.611615 14.5738L8.24793 8.05366C8.51569 7.82086 8.84813 7.67571 9.20062 7.6377C9.55311 7.59968 9.90877 7.67061 10.2199 7.84098L19.1577 12.7773L30.3301 3.92888L28.3582 1.58387L32.6707 0.789133L37 0ZM9.0691 14.4003H10.3707L11.7281 15.1391V33.2052C11.7289 33.3098 11.7088 33.4135 11.6692 33.5103C11.6296 33.607 11.5712 33.6949 11.4974 33.7689C11.4236 33.8428 11.3359 33.9013 11.2393 33.941C11.1427 33.9807 11.0393 34.0007 10.9349 34H4.4158C4.31143 34.0007 4.20794 33.9807 4.11136 33.941C4.01479 33.9013 3.92705 33.8428 3.85325 33.7689C3.77944 33.6949 3.72104 33.607 3.68144 33.5103C3.64184 33.4135 3.62183 33.3098 3.62257 33.2052V19.0512L9.0691 14.4003ZM22.9843 16.639V33.1885C22.985 33.2926 22.9652 33.3958 22.9259 33.4922C22.8867 33.5886 22.8288 33.6762 22.7555 33.7501C22.6823 33.8239 22.5953 33.8826 22.4993 33.9226C22.4034 33.9626 22.3005 33.9832 22.1966 33.9832H15.6943C15.5904 33.9832 15.4875 33.9626 15.3916 33.9226C15.2957 33.8826 15.2086 33.8239 15.1354 33.7501C15.0621 33.6762 15.0043 33.5886 14.965 33.4922C14.9257 33.3958 14.9059 33.2926 14.9066 33.1885V16.902L18.493 18.8777C18.8107 19.0529 19.1754 19.1234 19.5354 19.0792C19.8954 19.035 20.2323 18.8784 20.4984 18.6314L22.9843 16.639Z" fill="white"/>
</svg>
